<?xml version="1.0" encoding="UTF-8"?><svg id="_レイヤー_2" xmlns="http://www.w3.org/2000/svg" width="512" height="429.3" viewBox="0 0 512 429.3"><defs><style>.cls-1{fill:#fff;}</style></defs><g id="_10"><path class="cls-1" d="m511.87,261.75c1.8-47.77-15.47-93.05-48.64-127.5-33.2-34.48-77.76-53.46-125.49-53.46h-137.97V9.77c0-5.39-4.38-9.77-9.77-9.77-1.86,0-3.67.53-5.25,1.53L4.51,116.66C1.68,118.46,0,121.55,0,124.9c0,3.35,1.7,6.43,4.52,8.23l180.22,115c1.57,1.01,3.39,1.54,5.25,1.54,5.39,0,9.77-4.38,9.77-9.77v-70.92h137.97c24.14,0,47.34,10.27,63.64,28.19,16.52,18.15,24.35,41.66,22.04,66.2-4.1,43.6-42.95,77.76-88.43,77.76H48.77c-7.19,0-13.03,5.84-13.03,13.03v62.13c0,7.18,5.84,13.03,13.03,13.03h284.88c94.78,0,174.73-75.16,178.22-167.55Z"/></g></svg>
