<?xml version="1.0" encoding="UTF-8"?><svg id="_レイヤー_2" xmlns="http://www.w3.org/2000/svg" width="201.08mm" height="201.08mm" viewBox="0 0 570 570"><defs><style>.cls-1{fill:#aeaeae;}</style></defs><g id="contents"><path class="cls-1" d="m486.53,83.47C432.7,29.65,361.13,0,285,0S137.3,29.65,83.47,83.47,0,208.87,0,285s29.65,147.7,83.47,201.53c53.83,53.83,125.4,83.47,201.53,83.47s147.7-29.65,201.53-83.47c53.83-53.83,83.47-125.4,83.47-201.53s-29.65-147.7-83.47-201.53Zm-85.14,98.88l-103.75,267.1c-1.86,4.78-6.6,7.79-11.71,7.44-2.9-.2-5.53-1.45-7.49-3.4-1.49-1.49-2.59-3.4-3.11-5.55l-29.87-124.81-124.81-29.87c-2.16-.52-4.06-1.61-5.55-3.11-1.96-1.96-3.21-4.59-3.4-7.49-.35-5.11,2.67-9.85,7.44-11.71l267.1-103.75c4.33-1.68,9.24-.65,12.52,2.64s4.32,8.19,2.64,12.52Z"/></g></svg>