<?xml version="1.0" encoding="UTF-8"?><svg id="_レイヤー_2" xmlns="http://www.w3.org/2000/svg" width="1224.45" height="200" viewBox="0 0 1224.45 200"><defs><style>.cls-1{fill:#fff;}.cls-2{fill:#706756;}</style></defs><g id="logo_typo"><g><path class="cls-2" d="m327.78,81.69c0-12.76-6.03-44.08-9.28-47.56-1.62-1.86-3.25-2.78-5.8-2.78-2.32,0-3.71-.23-3.48-.46l3.48-2.78c2.55-1.62,3.94-3.02,4.64-4.18,1.16-.93,2.32-1.39,4.87-.93,4.41.7,20.65,2.32,28.3,10.67,3.94,4.41,6.5,9.05,7.42,14.15l1.39,7.66,8.35-.7c8.12-1.16,8.35-.23,7.66-5.57-.7-4.87,6.03-7.66,13.69-5.57,7.66,2.09,10.67,4.87,12.06,8.35.7,3.48-.93,8.35-7.89,10.67-3.48,1.39-9.28,2.32-17.4,3.02l-13.69,1.16.93,5.34c.46,2.55,1.86,7.89,2.55,16.01.7,8.35,1.39,12.76,1.62,13.92.46.93,2.09,1.62,4.18,1.86,5.1.93,20.88,7.19,32.94,13.22,5.8,3.02,8.82,4.87,9.05,5.8,0,1.16-9.51,3.25-15.08,3.25-2.78,0-8.12-2.09-15.78-5.34-7.66-3.25-11.83-5.34-12.06-5.34,0,0-6.26,2.78-6.73,11.14-2.09,32.25-19.02,37.82-31.55,44.54-6.26,3.48-21.81,2.09-23.66,2.32-1.16.23-3.71,0-6.73-1.62-29-8.58-24.59-39.9-12.06-55.45,6.03-7.42,15.08-13.69,26.45-18.79l11.6-4.87v-11.14Zm-27.61,50.34c-4.41,6.96-4.87,18.1-2.55,24.59,1.39,3.02,2.32,5.1,3.48,5.8,1.16.23,2.32,0,3.71-1.16,1.39-.93,9.51-3.25,12.53-6.26,8.58-8.58,11.83-10.44,9.74-35.73-.7-6.26.7-9.51-.7-9.51-4.18,0-22.27,14.85-26.22,22.27Z"/><path class="cls-2" d="m501.55,178.89c-2.32,0-5.1-.93-8.12-2.78-3.94-1.86-5.57-3.02-5.57-4.41,0-1.16,1.16-2.32,3.48-2.55,2.09-.23,5.1,0,8.35.93,14.15,4.18,43.15-4.18,47.56-19.25,3.25-10.9,2.32-31.09-1.62-38.05-3.71-7.19-5.34-8.35-9.05-9.05-7.66-.93-15.54,1.86-24.36,9.05-6.96,5.8-6.26,6.5-14.15,2.55-7.89-4.18-8.82-4.18-.93-15.78,9.28-13.92,17.4-35.5,28.07-51.5l-13.22.46c-11.14.46-13.92-.23-19.72-3.48-5.8-3.71-7.66-8.82-4.87-15.31,1.86-4.18,8.58-3.71,15.54,1.86,6.73,5.57,7.66,5.57,16.24,3.71,8.58-1.86,28.07-4.64,31.78-3.94,4.18.93,16.01,7.89,15.31,9.74,0,1.62-20.88,29.23-29.46,37.81l-13.69,8.58c28.54,2.78,26.45.23,44.31,9.05,16.94,8.82,23.9,32.71,13.46,50.34-10.21,20.18-48.02,35.73-67.51,33.18-5.57-.7-9.74-1.16-11.83-1.16Z"/><path class="cls-2" d="m725.89,26.24c3.71,0,19.95,8.35,20.65,9.28,0,.93.23,4.41.23,10.9,0,13.46-1.39,12.53,12.99,12.76l27.61.93,2.55-6.03c2.55-3.94,4.41-6.03,6.26-5.8,10.67.23,22.27,11.37,18.33,16.24-.46,1.16-2.78,1.62-6.03,1.86-3.25.23-9.28.23-18.56,0l-38.97-.7v19.49c0,13.22,1.62,22.5,3.71,28.54,3.02,11.6,4.18,35.5,1.16,43.85-2.78,8.58-13.69,22.74-17.63,23.66-3.71,1.62-11.14-1.62-12.53-3.02-.46-.46-.46-1.39-.46-3.25,1.16-3.25,6.03-23.43,6.03-25.52,0-.93-.93-.93-2.09.23-4.64,4.64-27.84.7-38.28-6.5-10.44-6.96-12.76-24.13-7.19-34.1,5.57-9.51,15.54-12.99,26.68-15.31,5.57-1.16,8.82-1.86,9.74-1.86,1.16-.23,3.71-2.09,3.71-2.78,0-.23,0-1.16.23-3.02,0-1.62,0-2.78-.23-3.94l-3.48-16.24-20.18.93c-26.45.93-34.8,1.86-37.35,3.02-4.87,2.55-25.29-2.09-12.99-6.73,6.03-2.32,17.4-3.25,45.47-4.41l24.36-.93-1.16-12.76c-.93-10.44-.46-12.53,2.32-16.01,1.62-1.62,3.48-2.78,5.1-2.78Zm-19.95,95.81c0,4.64.93,8.82,2.09,12.53,1.16,3.71,2.32,5.57,3.94,5.57,23.66,0,16.24-36.66,15.54-38.74-.23-.46-1.39-1.39-2.32-1.62-5.1.23-9.28,3.02-13.22,7.89-3.94,4.64-6.03,9.51-6.03,14.38Zm71.45-85.37c9.05,8.35,3.48,22.74-10.67,10.21-10.9-9.98-1.62-21.58,10.67-10.21Zm18.56-6.26c9.28,8.58,3.71,22.97-10.67,10.21-10.9-9.74-1.62-21.34,10.67-10.21Z"/><path class="cls-2" d="m1011.48,53.15c0,1.86-.7,3.25-2.09,4.64-2.09,1.16-5.1,2.32-10.9,3.02h-50.81l-.46,22.27c-.23,15.08,0,22.5,1.16,22.5,14.85,0,46.86,3.48,51.73,5.57s7.19,6.73,8.82,15.08c.7,3.94,1.16,9.51,1.16,16.47,0,38.28-4.41,35.5-34.1,35.5-14.62,0-31.55.23-51.04.93-19.26.93-31.09,1.16-35.96,1.16s-8.58-.93-11.37-2.09l-6.26-2.78-3.02-18.33c-1.62-11.6-3.02-20.65-3.02-26.45s0-9.98.23-11.14c.23-2.78.7-3.02,5.1-3.02,2.32,0,3.48-.7,3.48-1.62,0-2.09,26.68-5.8,35.03-5.8s7.89-.23,9.28-7.42c1.16-7.19-.7-53.13-3.25-65.65-1.16-6.03-1.39-10.44-.46-12.99.7-2.32,2.32-3.25,5.1-2.32,2.78.7,4.18.23,4.41-1.16,0-2.32,5.1-1.16,15.78,3.25,5.34,2.32,7.19,4.41,4.87,6.03l-.46.7c-1.16.7-1.16,4.41.23,11.37l1.62,10.9h33.64c1.62-.23,2.78-.93,3.48-1.86.93-.23,2.09-1.16,3.48-2.55,1.16-1.16,2.78-2.09,3.94-2.32,3.02-.23,13.69,2.55,16.47,3.71,1.39.46,2.32.93,3.25,1.62.7.93.93,1.62.93,2.78Zm-110.43,64.96l.46,20.18c.46,10.21,1.86,20.18,3.48,27.84.7,3.71.93,5.8,1.16,6.03,1.16,1.39,13.22,1.16,36.19.23l34.33-1.16-1.16-27.61c-1.86-37.82,2.55-31.55-21.34-30.62-12.06.46-27.14,2.55-45.24,4.41l-7.89.7Z"/><path class="cls-2" d="m1114.96,89.81c0,17.17,3.02,33.41,8.82,49.42l2.78-5.34c3.02-5.1,4.18-5.1,11.14-3.71,3.48.46,5.57,1.39,6.26,1.86,1.39,1.86-9.51,27.38-13.22,30.62-4.18,3.25-15.31,1.62-18.09-2.09-2.09-1.62-4.64-4.64-7.42-8.82-11.6-15.54-17.63-31.78-22.04-48.49-3.25-12.53-3.94-40.37-2.09-43.38,2.09-3.25,15.54-1.62,16.24.93.23,1.39,2.09,2.09,5.57,3.02,6.73,1.62,8.82,3.71,10.44,8.82.93,2.55,1.16,4.41,1.16,6.03l.46,11.14Zm54.05-24.13c0-4.64.46-4.64,4.64-3.48,1.86.23,5.1,1.62,9.51,3.25,4.87,1.86,8.35,3.02,10.44,3.48,4.41.93,20.65,15.31,23.43,22.97,3.25,7.66,8.58,38.28,7.19,40.13-.7,1.16-7.19.46-19.49-2.32-5.8-1.39-12.06-9.51-9.28-11.6,1.39-.7-19.25-48.72-25.05-48.72-.93,0-1.39-1.39-1.39-3.71Z"/></g><g><path class="cls-1" d="m144.8,80.47c-2.24-2.4-5.21-3.68-8.89-3.84h-42.22l-1.5,19.7h35.8l-1.93,35.57c0,1.6-.6,2.96-1.8,4.09-1.2,1.12-2.6,1.68-4.2,1.68l-20.67-.72c-2.72,0-5.09.93-7.09,2.76-2,1.85-3.04,4.13-3.13,6.85-.08,2.72.84,5.09,2.76,7.09,1.92,2,4.24,3.01,6.97,3.01l23.55.96c5.77-.32,10.85-2.49,15.26-6.49s7.09-8.97,8.05-14.91l2.4-46.62c.16-3.53-.96-6.57-3.36-9.14Zm0,0c-2.24-2.4-5.21-3.68-8.89-3.84h-42.22l-1.5,19.7h35.8l-1.93,35.57c0,1.6-.6,2.96-1.8,4.09-1.2,1.12-2.6,1.68-4.2,1.68l-20.67-.72c-2.72,0-5.09.93-7.09,2.76-2,1.85-3.04,4.13-3.13,6.85-.08,2.72.84,5.09,2.76,7.09,1.92,2,4.24,3.01,6.97,3.01l23.55.96c5.77-.32,10.85-2.49,15.26-6.49s7.09-8.97,8.05-14.91l2.4-46.62c.16-3.53-.96-6.57-3.36-9.14ZM100,10.99C50.84,10.99,10.99,50.84,10.99,100s39.85,89.01,89.01,89.01,89.01-39.85,89.01-89.01S149.16,10.99,100,10.99Zm0,3.77c14.19,0,27.58,3.49,39.36,9.65-2.58,2.51-4.11,9.19-3.54,22.72l-85.71,1.85c-2.56,0-4.81.96-6.73,2.88s-2.89,4.21-2.89,6.85.97,4.93,2.89,6.85c1.92,1.92,4.17,2.96,6.73,3.13h20.19c.16,14.1-2.04,27.72-6.6,40.85-4.57,13.14-11.34,25.24-20.31,36.29-1.21,1.74-6.38,6.71-7.85,9.84-12.94-14.94-20.76-34.41-20.76-55.68C14.77,53,53,14.77,100,14.77Zm0,170.47c-14.11,0-27.42-3.45-39.15-9.53,13.74-19.16,22.44-57.2,26.75-79.37l2.4-19.7.24-7.93h57.2c2.72-.16,5.05-1.21,6.96-3.13,1.93-1.92,2.89-4.21,2.89-6.85,0-1.8,2.54-13.54,4.07-17.8,14.77,15.33,23.86,36.17,23.86,59.08,0,47-38.24,85.23-85.23,85.23Zm35.91-108.61h-42.22l-1.5,19.7h35.8l-1.93,35.57c0,1.6-.6,2.96-1.8,4.09-1.2,1.12-2.6,1.68-4.2,1.68l-20.67-.72c-2.72,0-5.09.93-7.09,2.76-2,1.85-3.04,4.13-3.13,6.85-.08,2.72.84,5.09,2.76,7.09,1.92,2,4.24,3.01,6.97,3.01l23.55.96c5.77-.32,10.85-2.49,15.26-6.49s7.09-8.97,8.05-14.91l2.4-46.62c.16-3.53-.96-6.57-3.36-9.14-2.24-2.4-5.21-3.68-8.89-3.84Z"/><path class="cls-2" d="m100,0C44.86,0,0,44.86,0,100s44.86,100,100,100,100-44.86,100-100S155.14,0,100,0Zm0,185.23c-14.11,0-27.42-3.45-39.15-9.53-9.67-5.02-18.27-11.85-25.32-20.02-12.94-14.94-20.76-34.41-20.76-55.68C14.77,53,53,14.77,100,14.77c14.19,0,27.58,3.49,39.36,9.65,8.21,4.29,15.64,9.89,22.01,16.51,14.77,15.33,23.86,36.17,23.86,59.08,0,47-38.24,85.23-85.23,85.23Z"/><path class="cls-2" d="m148.16,89.61l-2.4,46.62c-.96,5.93-3.64,10.9-8.05,14.91s-9.49,6.17-15.26,6.49l-23.55-.96c-2.73,0-5.05-1.01-6.97-3.01-1.92-2-2.85-4.36-2.76-7.09.08-2.72,1.12-5,3.13-6.85,2-1.84,4.36-2.76,7.09-2.76l20.67.72c1.6,0,3-.56,4.2-1.68,1.21-1.12,1.8-2.49,1.8-4.09l1.93-35.57h-35.8l1.5-19.7h42.22c3.68.16,6.65,1.44,8.89,3.84,2.4,2.57,3.53,5.61,3.36,9.14Z"/><path class="cls-2" d="m161.41,40.8s-.02.07-.04.11c-1.53,4.26-4.07,16-4.07,17.8,0,2.64-.96,4.93-2.89,6.85-1.92,1.92-4.25,2.96-6.96,3.13h-57.2l-.24,7.93-2.4,19.7c-4.31,22.17-13.01,60.21-26.75,79.37-.57.79-1.14,1.55-1.72,2.27-1.76,1.92-2.08-3.07-4.73-2.9-2.64.16-14.63-11.12-16.72-12.72-1.92-1.6-2.22-2.44-2.54-5.09-.05-.43.09-.97.39-1.58,1.47-3.13,6.64-8.1,7.85-9.84,8.97-11.05,15.74-23.15,20.31-36.29,4.56-13.13,6.77-26.75,6.6-40.85h-20.19c-2.56-.16-4.81-1.21-6.73-3.13-1.92-1.92-2.89-4.21-2.89-6.85s.97-4.93,2.89-6.85,4.17-2.88,6.73-2.88l85.71-1.85c-.57-13.54.96-20.21,3.54-22.72,6.18-6.03,18.39,11.93,22.05,16.39Z"/></g></g></svg>