<?xml version="1.0" encoding="UTF-8"?><svg id="_レイヤー_2" xmlns="http://www.w3.org/2000/svg" width="243.81" height="243.81" viewBox="0 0 243.81 243.81"><defs><style>.cls-1{fill:#fff;}.cls-2{fill:#706756;}</style></defs><g id="logo"><circle class="cls-1" cx="121.9" cy="121.9" r="108.5"/><path class="cls-2" d="M121.9,243.81C54.69,243.81,0,189.12,0,121.9S54.69,0,121.9,0s121.9,54.69,121.9,121.9-54.69,121.9-121.9,121.9Zm0-225.81c-57.29,0-103.9,46.61-103.9,103.9s46.61,103.9,103.9,103.9,103.9-46.61,103.9-103.9S179.2,18,121.9,18Z"/><path class="cls-2" d="M165.68,93.41h-51.47l-1.83,24.02h43.64l-2.34,43.36c0,1.96-.73,3.61-2.2,4.98-1.46,1.37-3.17,2.05-5.13,2.05l-25.2-.88c-3.32,0-6.2,1.12-8.64,3.37-2.44,2.25-3.71,5.03-3.81,8.35-.1,3.32,1.03,6.2,3.37,8.64,2.34,2.44,5.17,3.66,8.5,3.66l28.71,1.17c7.03-.39,13.23-3.03,18.6-7.91,5.37-4.88,8.64-10.94,9.81-18.16l2.93-56.84c.19-4.3-1.17-8.01-4.1-11.13-2.74-2.93-6.35-4.49-10.84-4.69Z"/><path class="cls-2" d="M165.57,57.46l-104.48,2.26c-3.13,0-5.86,1.17-8.2,3.52s-3.52,5.13-3.52,8.35,1.17,6.01,3.52,8.35,5.08,3.61,8.2,3.81h24.61c.19,17.19-2.49,33.79-8.06,49.8-5.57,16.02-13.82,30.76-24.76,44.24-1.76,2.54-10.43,10.69-10.04,13.92,.39,3.22,.76,4.25,3.1,6.2,2.54,1.95,17.16,15.7,20.38,15.51,3.22-.2,3.61,5.89,5.76,3.54,17.97-22.27,29.23-71.4,34.7-99.52h0l2.93-24.02h0l.29-9.67h69.73c3.32-.19,6.15-1.46,8.5-3.81s3.52-5.13,3.52-8.35c0-2.21,3.16-16.76,5.01-21.84-6.32-7.71-33.55-48.42-31.19,7.71Z"/><path class="cls-2" d="M196.76,49.75c.81,.99,1.28,1.44,1.3,1.07,.13-3.73-.45-3.39-1.3-1.07Z"/></g></svg>