<?xml version="1.0" encoding="UTF-8"?><svg id="_レイヤー_2" xmlns="http://www.w3.org/2000/svg" width="1256.06" height="243.81" viewBox="0 0 1256.06 243.81"><defs><style>.cls-1{fill:#fff;}.cls-2{fill:#706756;}.cls-3{fill:#4b4b4b;}</style></defs><g id="logo_typo"><g><path class="cls-3" d="M359.39,103.59c0-12.76-6.03-44.08-9.28-47.56-1.62-1.86-3.25-2.78-5.8-2.78-2.32,0-3.71-.23-3.48-.46l3.48-2.78c2.55-1.62,3.94-3.02,4.64-4.18,1.16-.93,2.32-1.39,4.87-.93,4.41,.7,20.65,2.32,28.3,10.67,3.94,4.41,6.5,9.05,7.42,14.15l1.39,7.66,8.35-.7c8.12-1.16,8.35-.23,7.66-5.57-.7-4.87,6.03-7.66,13.69-5.57,7.66,2.09,10.67,4.87,12.06,8.35,.7,3.48-.93,8.35-7.89,10.67-3.48,1.39-9.28,2.32-17.4,3.02l-13.69,1.16,.93,5.34c.46,2.55,1.86,7.89,2.55,16.01,.7,8.35,1.39,12.76,1.62,13.92,.46,.93,2.09,1.62,4.18,1.86,5.1,.93,20.88,7.19,32.94,13.22,5.8,3.02,8.82,4.87,9.05,5.8,0,1.16-9.51,3.25-15.08,3.25-2.78,0-8.12-2.09-15.78-5.34-7.66-3.25-11.83-5.34-12.06-5.34,0,0-6.26,2.78-6.73,11.14-2.09,32.25-19.02,37.82-31.55,44.54-6.26,3.48-21.81,2.09-23.66,2.32-1.16,.23-3.71,0-6.73-1.62-29-8.58-24.59-39.9-12.06-55.45,6.03-7.42,15.08-13.69,26.45-18.79l11.6-4.87v-11.14Zm-27.61,50.34c-4.41,6.96-4.87,18.1-2.55,24.59,1.39,3.02,2.32,5.1,3.48,5.8,1.16,.23,2.32,0,3.71-1.16,1.39-.93,9.51-3.25,12.53-6.26,8.58-8.58,11.83-10.44,9.74-35.73-.7-6.26,.7-9.51-.7-9.51-4.18,0-22.27,14.85-26.22,22.27Z"/><path class="cls-3" d="M533.16,200.8c-2.32,0-5.1-.93-8.12-2.78-3.94-1.86-5.57-3.02-5.57-4.41,0-1.16,1.16-2.32,3.48-2.55,2.09-.23,5.1,0,8.35,.93,14.15,4.18,43.15-4.18,47.56-19.25,3.25-10.9,2.32-31.09-1.62-38.05-3.71-7.19-5.34-8.35-9.05-9.05-7.66-.93-15.54,1.86-24.36,9.05-6.96,5.8-6.26,6.5-14.15,2.55-7.89-4.18-8.82-4.18-.93-15.78,9.28-13.92,17.4-35.5,28.07-51.5l-13.22,.46c-11.14,.46-13.92-.23-19.72-3.48-5.8-3.71-7.66-8.82-4.87-15.31,1.86-4.18,8.58-3.71,15.54,1.86,6.73,5.57,7.66,5.57,16.24,3.71,8.58-1.86,28.07-4.64,31.78-3.94,4.18,.93,16.01,7.89,15.31,9.74,0,1.62-20.88,29.23-29.46,37.81l-13.69,8.58c28.54,2.78,26.45,.23,44.31,9.05,16.94,8.82,23.9,32.71,13.46,50.34-10.21,20.18-48.02,35.73-67.51,33.18-5.57-.7-9.74-1.16-11.83-1.16Z"/><path class="cls-3" d="M757.5,48.14c3.71,0,19.95,8.35,20.65,9.28,0,.93,.23,4.41,.23,10.9,0,13.46-1.39,12.53,12.99,12.76l27.61,.93,2.55-6.03c2.55-3.94,4.41-6.03,6.26-5.8,10.67,.23,22.27,11.37,18.33,16.24-.46,1.16-2.78,1.62-6.03,1.86-3.25,.23-9.28,.23-18.56,0l-38.97-.7v19.49c0,13.22,1.62,22.5,3.71,28.54,3.02,11.6,4.18,35.5,1.16,43.85-2.78,8.58-13.69,22.74-17.63,23.66-3.71,1.62-11.14-1.62-12.53-3.02-.46-.46-.46-1.39-.46-3.25,1.16-3.25,6.03-23.43,6.03-25.52,0-.93-.93-.93-2.09,.23-4.64,4.64-27.84,.7-38.28-6.5-10.44-6.96-12.76-24.13-7.19-34.1,5.57-9.51,15.54-12.99,26.68-15.31,5.57-1.16,8.82-1.86,9.74-1.86,1.16-.23,3.71-2.09,3.71-2.78,0-.23,0-1.16,.23-3.02,0-1.62,0-2.78-.23-3.94l-3.48-16.24-20.18,.93c-26.45,.93-34.8,1.86-37.35,3.02-4.87,2.55-25.29-2.09-12.99-6.73,6.03-2.32,17.4-3.25,45.47-4.41l24.36-.93-1.16-12.76c-.93-10.44-.46-12.53,2.32-16.01,1.62-1.62,3.48-2.78,5.1-2.78Zm-19.95,95.81c0,4.64,.93,8.82,2.09,12.53,1.16,3.71,2.32,5.57,3.94,5.57,23.66,0,16.24-36.66,15.54-38.74-.23-.46-1.39-1.39-2.32-1.62-5.1,.23-9.28,3.02-13.22,7.89-3.94,4.64-6.03,9.51-6.03,14.38Zm71.45-85.37c9.05,8.35,3.48,22.74-10.67,10.21-10.9-9.98-1.62-21.58,10.67-10.21Zm18.56-6.26c9.28,8.58,3.71,22.97-10.67,10.21-10.9-9.74-1.62-21.34,10.67-10.21Z"/><path class="cls-3" d="M1043.09,75.05c0,1.86-.7,3.25-2.09,4.64-2.09,1.16-5.1,2.32-10.9,3.02h-50.81l-.46,22.27c-.23,15.08,0,22.5,1.16,22.5,14.85,0,46.86,3.48,51.73,5.57s7.19,6.73,8.82,15.08c.7,3.94,1.16,9.51,1.16,16.47,0,38.28-4.41,35.5-34.1,35.5-14.62,0-31.55,.23-51.04,.93-19.26,.93-31.09,1.16-35.96,1.16s-8.58-.93-11.37-2.09l-6.26-2.78-3.02-18.33c-1.62-11.6-3.02-20.65-3.02-26.45s0-9.98,.23-11.14c.23-2.78,.7-3.02,5.1-3.02,2.32,0,3.48-.7,3.48-1.62,0-2.09,26.68-5.8,35.03-5.8s7.89-.23,9.28-7.42c1.16-7.19-.7-53.13-3.25-65.65-1.16-6.03-1.39-10.44-.46-12.99,.7-2.32,2.32-3.25,5.1-2.32,2.78,.7,4.18,.23,4.41-1.16,0-2.32,5.1-1.16,15.78,3.25,5.34,2.32,7.19,4.41,4.87,6.03l-.46,.7c-1.16,.7-1.16,4.41,.23,11.37l1.62,10.9h33.64c1.62-.23,2.78-.93,3.48-1.86,.93-.23,2.09-1.16,3.48-2.55,1.16-1.16,2.78-2.09,3.94-2.32,3.02-.23,13.69,2.55,16.47,3.71,1.39,.46,2.32,.93,3.25,1.62,.7,.93,.93,1.62,.93,2.78Zm-110.43,64.96l.46,20.18c.46,10.21,1.86,20.18,3.48,27.84,.7,3.71,.93,5.8,1.16,6.03,1.16,1.39,13.22,1.16,36.19,.23l34.33-1.16-1.16-27.61c-1.86-37.82,2.55-31.55-21.34-30.62-12.06,.46-27.14,2.55-45.24,4.41l-7.89,.7Z"/><path class="cls-3" d="M1146.57,111.71c0,17.17,3.02,33.41,8.82,49.42l2.78-5.34c3.02-5.1,4.18-5.1,11.14-3.71,3.48,.46,5.57,1.39,6.26,1.86,1.39,1.86-9.51,27.38-13.22,30.62-4.18,3.25-15.31,1.62-18.09-2.09-2.09-1.62-4.64-4.64-7.42-8.82-11.6-15.54-17.63-31.78-22.04-48.49-3.25-12.53-3.94-40.37-2.09-43.38,2.09-3.25,15.54-1.62,16.24,.93,.23,1.39,2.09,2.09,5.57,3.02,6.73,1.62,8.82,3.71,10.44,8.82,.93,2.55,1.16,4.41,1.16,6.03l.46,11.14Zm54.05-24.13c0-4.64,.46-4.64,4.64-3.48,1.86,.23,5.1,1.62,9.51,3.25,4.87,1.86,8.35,3.02,10.44,3.48,4.41,.93,20.65,15.31,23.43,22.97,3.25,7.66,8.58,38.28,7.19,40.13-.7,1.16-7.19,.46-19.49-2.32-5.8-1.39-12.06-9.51-9.28-11.6,1.39-.7-19.25-48.72-25.05-48.72-.93,0-1.39-1.39-1.39-3.71Z"/></g><g><circle class="cls-1" cx="121.9" cy="121.9" r="108.5"/><path class="cls-2" d="M121.9,243.81C54.69,243.81,0,189.12,0,121.9S54.69,0,121.9,0s121.9,54.69,121.9,121.9-54.69,121.9-121.9,121.9Zm0-225.81c-57.29,0-103.9,46.61-103.9,103.9s46.61,103.9,103.9,103.9,103.9-46.61,103.9-103.9S179.2,18,121.9,18Z"/><path class="cls-2" d="M165.68,93.41h-51.47l-1.83,24.02h43.64l-2.34,43.36c0,1.96-.73,3.61-2.2,4.98-1.46,1.37-3.17,2.05-5.13,2.05l-25.2-.88c-3.32,0-6.2,1.12-8.64,3.37-2.44,2.25-3.71,5.03-3.81,8.35-.1,3.32,1.03,6.2,3.37,8.64,2.34,2.44,5.17,3.66,8.5,3.66l28.71,1.17c7.03-.39,13.23-3.03,18.6-7.91,5.37-4.88,8.64-10.94,9.81-18.16l2.93-56.84c.19-4.3-1.17-8.01-4.1-11.13-2.74-2.93-6.35-4.49-10.84-4.69Z"/><path class="cls-2" d="M165.57,57.46l-104.48,2.26c-3.13,0-5.86,1.17-8.2,3.52s-3.52,5.13-3.52,8.35,1.17,6.01,3.52,8.35,5.08,3.61,8.2,3.81h24.61c.19,17.19-2.49,33.79-8.06,49.8-5.57,16.02-13.82,30.76-24.76,44.24-1.76,2.54-10.43,10.69-10.04,13.92,.39,3.22,.76,4.25,3.1,6.2,2.54,1.95,17.16,15.7,20.38,15.51,3.22-.2,3.61,5.89,5.76,3.54,17.97-22.27,29.23-71.4,34.7-99.52h0l2.93-24.02h0l.29-9.67h69.73c3.32-.19,6.15-1.46,8.5-3.81s3.52-5.13,3.52-8.35c0-2.21,3.16-16.76,5.01-21.84-6.32-7.71-33.55-48.42-31.19,7.71Z"/></g></g></svg>