<?xml version="1.0" encoding="utf-8"?>
<!-- Generator: Adobe Illustrator 26.2.1, SVG Export Plug-In . SVG Version: 6.00 Build 0)  -->
<svg version="1.1" id="レイヤー_1" xmlns="http://www.w3.org/2000/svg" xmlns:xlink="http://www.w3.org/1999/xlink" x="0px"
	 y="0px" viewBox="0 0 512 512" style="enable-background:new 0 0 512 512;" xml:space="preserve">
<path class="st0" d="M320,192c0,17.7,14.3,31.1,32,31.1l64,0.9c17.7,0,32-14.3,32-32s-14.3-32-32-32V64c0-11.2-5.8-21.5-15.4-27.3
	c-9.5-5.8-21.4-6.2-31.3-1.1l-32,16.6c-15.7,8.1-21.8,27.4-13.7,43.1c5.7,11,16.8,17.3,28.4,17.3V160C334.3,160,320,174.3,320,192z
	 M392,255.6c-48.6,0-88,39.4-88,88c0,36.4,22.1,67.7,53.7,81.1l-7.7,8c-10.7,11.2-10.3,28.9,0.8,39.6c5.5,5.2,12.5,7.8,19.4,7.8
	c7.3,0,14.7-2.9,20.2-8.6C460,398.8,480,386,480,343.6C480,294.1,440.6,255.6,392,255.6z M392,367.6c-13.2,0-24-10.8-24-24
	s10.8-24,24-24s24,10.8,24,24S405.2,367.6,392,367.6z M216,320.3c-8.7,0-17.3,3.5-23.6,10.4L160,366.1V64c0-17.7-14.3-32-32-32
	S96,46.3,96,64v302l-32.4-35.3c-12-13-32.2-13.9-45.2-2c-13,12-13.9,32.2-2,45.3l87.1,96.1c12.1,13.3,35.1,13.3,47.2,0l87.1-96.1
	c11.9-13,11.1-33.3-2-45.3C231.5,323.1,223.7,320.3,216,320.3z"/>
</svg>
