<?xml version="1.0" encoding="utf-8"?>
<!-- Generator: Adobe Illustrator 27.5.0, SVG Export Plug-In . SVG Version: 6.00 Build 0)  -->
<svg version="1.1" id="_x32_" xmlns="http://www.w3.org/2000/svg" xmlns:xlink="http://www.w3.org/1999/xlink" x="0px" y="0px"
	 viewBox="0 0 512 512" style="enable-background:new 0 0 512 512;" xml:space="preserve">
<style type="text/css">
	.st0{fill:#FFFFFF;}
</style>
<g>
	<path class="st0" d="M500.5,187.1C450,105.1,359.4,50.3,256,50.3C160.9,50.3,76.7,96.7,24.6,168l147.4,123.6
		c3.7-6.9,8.3-13.3,13.5-19l23.8,44.4l12.8,23.9l11.1,20.6l0.2,0.4l-67.5-56.6L17.1,180.4l-5.3,6.3L0,200.9l2.6,2.1l158,132.6
		l74.7,62.7l-26.1,21.9l-11.6,9.7l17.1,20.4l23.3-19.6l3.9-3.3v16l0,18.2l26.6,0l0-35.4l5.4,4.5l23.3,19.6l17.1-20.4l-11.6-9.7
		l-26.1-21.9l74.7-62.8l158-132.5l2.5-2.1L500.5,187.1z M268.5,247.5v-5.2c12.7,1.6,24.5,5.8,35.2,11.9l-29.2,54.4l-5.9,10.9
		L268.5,247.5z M276.2,361.5l11.1-20.6l12.8-23.9l24.8-46.2c9.4,9.8,16.7,21.5,21.3,34.5L273.8,366L276.2,361.5z M241.9,321.5
		l-6.9-13l-28.6-53.2c10.6-6.5,22.7-10.9,35.5-12.9L241.9,321.5z"/>
</g>
</svg>
