<!--?xml version="1.0" encoding="utf-8"?-->
<!-- Generator: Adobe Illustrator 18.1.1, SVG Export Plug-In . SVG Version: 6.00 Build 0)  -->

<svg version="1.1" id="_x32_" xmlns="http://www.w3.org/2000/svg" xmlns:xlink="http://www.w3.org/1999/xlink" x="0px" y="0px" viewBox="0 0 512 512" style="enable-background:new 0 0 512 512;" xml:space="preserve">
<style type="text/css">
	.st0{fill:#4B4B4B;}
</style>
<g>
	<path class="st0" d="M500.468,187.116C450.021,105.064,359.44,50.312,256.036,50.312c-95.121,0-179.335,46.35-231.467,117.668
		l147.36,123.631c3.72-6.905,8.298-13.268,13.535-19.018L209.276,317l12.778,23.852l11.126,20.643l0.203,0.382l-67.494-56.599
		L17.126,180.443l-5.304,6.307L0,200.87l2.58,2.15l158.004,132.568l74.741,62.708l-26.086,21.853l-11.603,9.748l17.122,20.42
		l23.29-19.56l3.934-3.297v16.048l0.024,18.182l26.646-0.016l-0.035-35.439l5.404,4.524l23.286,19.56l17.131-20.42l-11.611-9.748
		l-26.082-21.853l74.742-62.771L509.496,203.02l2.504-2.15L500.468,187.116z M268.459,247.467v-5.232
		c12.666,1.641,24.545,5.758,35.157,11.874l-29.224,54.385l-5.858,10.943L268.459,247.467z M276.184,361.495l11.125-20.643
		L300.088,317l24.792-46.238c9.369,9.763,16.736,21.462,21.304,34.516l-72.416,60.725L276.184,361.495z M241.908,321.451
		l-6.937-12.958l-28.595-53.215c10.644-6.498,22.658-10.942,35.496-12.853L241.908,321.451z"></path>
</g>
</svg>
