<?xml version="1.0" encoding="UTF-8"?><svg id="_レイヤー_2" xmlns="http://www.w3.org/2000/svg" width="38.85mm" height="28.31mm" viewBox="0 0 110.13 80.26"><defs><style>.cls-1{fill:#040000;}</style></defs><g id="object"><g><path class="cls-1" d="m102.73,44.07c1.36-1.62,1.93-3.92,1.27-5.96-.92-2.86-4.19-4.74-7.29-4.18-2.44.44-3.76,2.29-4.48,3.56-1-1.5-2.96-3.37-5.69-3.69-3.29-.39-6.96.9-7.59,4.12-.38,1.94.46,4.13,2.19,5.73.36.33.74.63,1.14.9-1.56.19-2.99.76-4.03,2.01-1.23,1.48-1.52,3.68-.74,5.6.67,1.66,2.04,3.04,3.87,3.9,2.41,1.13,5.28,1.09,7.72.05-2.01,3.31-5.01,7.06-7.93,9.95-.78-1.41-1.86-2.26-2.76-2.98-.32-.25-.64-.5-.94-.77-.98-.9-1.12-1.78-1.33-3.1-.07-.46-.15-.93-.26-1.43-.39-1.7-1.5-3.26-3.38-4.78-.4-.32-.9-.64-1.42-.97-1.24-.79-2.78-1.77-2.84-2.81-.05-.84.77-1.78,1.56-2.7.56-.64,1.13-1.31,1.48-2.02,1.76-3.62,1.73-7.83,1.71-11.22l-.1-17.36c0-4.56,0-9.27-3.43-13.24-2.12-2.46-5.33-3.27-9.04-2.26-2.72.74-4.44,2.89-4.98,6.22-.22,1.35-.49,1.8-1.81,1.99-2.72.4-4.59,2.44-4.88,5.34-.29,2.91.04,5.99,1.02,9.4.94,3.26,1.4,6.71,1.39,10.53,0,1.34-.07,2.32-.91,2.89-1.54,1.03-3.31,1.07-4.75.11-1.16-.77-2.03-2.01-2.76-3.11-2.87-4.33-5.36-9.24-7.39-14.6-.31-.83-.61-1.87-.93-2.98-1.23-4.3-2.92-10.2-8.01-10.83-3.23-.39-6,2.27-6.95,4.98-.49,1.38-.41,3.17-.32,5.07.12,2.83.25,5.76-1.62,6.7-.76.38-1.75.3-2.8.2l-.21-.02c-2.1-.18-4.23-.18-6.33,0-1.64.14-3.53.43-5.14,1.44C.95,25.08-.08,26.69,0,28.54c.21,4.82,8.08,9,8.98,9.46,4.14,2.13,8.56,3.7,12.84,5.22,1.27.45,2.54.9,3.8,1.37.29.11.62.22,1,.36,2.5.87,7.72,2.69,8.71,5.28.29.75.19,1.53-.28,2.4-1.72,3.11-5.12,4.45-10.4,4.11-2.51-.17-5.06-.07-7.55.29-1.85.27-4.46.99-6.42,2.91-1.27,1.24-1.62,2.78-1.93,4.14-.41,1.83-.71,2.8-2.31,3.19-1.84.44-3.22,1.7-3.79,3.45-.74,2.27-.35,4.66,1.05,6.58,1.39,1.89,3.53,2.97,5.89,2.97.03,0,.06,0,.09,0,1.73-.02,3.48-.16,5.16-.3.76-.06,1.52-.12,2.26-.17,5.47-.28,11.84-.66,18.13-1.76,5.52-.96,10.27-3.68,14.95-8.55.42-.44.83-.89,1.25-1.36,2.17-2.42,4.23-4.7,7.76-4.31l3.85,2.38s.06.03.09.05c3.11,1.48,5.84,1.5,8.72,1.51,2,0,4.23.03,6.91.52-.51.42-1.01.81-1.49,1.14-4.76,3.29-10.47,4.75-15.65,4-.52-.07-1,.29-1.08.81-.07.52.29,1,.81,1.08.98.14,1.97.21,2.98.21,4.79,0,9.77-1.58,14.02-4.52.91-.63,1.88-1.42,2.87-2.32.14-.05.27-.13.37-.24.08-.08.13-.17.17-.27,2.59-2.45,5.29-5.6,7.43-8.68.11,1.11.38,2.14.83,3.07,1.09,2.24,3.57,4.03,6.14,4.03.72,0,1.45-.14,2.15-.45,2.28-.99,3.78-3.66,3.67-6.48-.04-.87-.2-1.75-.51-2.64,2.01.87,4.27.98,6.12-.24,1.27-.84,2.13-2.21,2.42-3.86.33-1.9-.13-3.92-1.23-5.41-1.34-1.8-3.54-3.02-6.06-3.43Zm-30.88,21.78c-2.88-.01-5.16-.02-7.87-1.3l-3.98-2.46c-.11-.07-.24-.12-.37-.13-4.65-.64-7.29,2.31-9.62,4.9-.4.45-.8.89-1.2,1.31-4.38,4.56-8.8,7.1-13.91,7.99-6.19,1.08-12.49,1.46-17.92,1.73-.77.05-1.54.11-2.31.18-1.65.13-3.36.27-5.03.29-1.82.01-3.38-.78-4.42-2.2-1.04-1.41-1.32-3.19-.78-4.86.37-1.12,1.23-1.9,2.42-2.19,2.83-.68,3.33-2.86,3.73-4.61.27-1.21.53-2.35,1.4-3.2,1.6-1.56,3.8-2.16,5.37-2.39,1.62-.23,3.27-.35,4.91-.35.75,0,1.5.02,2.25.07,6.01.4,10.11-1.31,12.19-5.09.75-1.37.89-2.71.39-4-1.31-3.41-6.66-5.28-9.86-6.4-.37-.13-.69-.24-.97-.34-1.27-.47-2.55-.92-3.82-1.38-4.22-1.5-8.58-3.06-12.6-5.12-3.13-1.61-7.83-5.03-7.95-7.85-.05-1.14.66-2.15,2.16-3.09,1.27-.8,2.89-1.03,4.3-1.16,1.99-.17,4.01-.18,5.99,0l.2.02c1.21.11,2.57.23,3.82-.4,2.97-1.49,2.81-5.21,2.67-8.48-.08-1.71-.15-3.32.22-4.36.72-2.04,2.76-4,4.93-3.73,3.85.48,5.27,5.46,6.42,9.47.33,1.14.64,2.22.98,3.13,2.08,5.49,4.63,10.53,7.58,14.98.83,1.25,1.84,2.67,3.29,3.64,2.06,1.38,4.69,1.34,6.86-.11,1.75-1.17,1.75-3.15,1.76-4.47,0-4-.48-7.62-1.47-11.05-.92-3.18-1.23-6.02-.96-8.68.2-2.02,1.42-3.38,3.26-3.65,2.55-.37,3.14-1.94,3.41-3.57.42-2.61,1.6-4.15,3.6-4.69,1.71-.46,4.92-.87,7.1,1.67,2.96,3.44,2.96,7.6,2.97,12l.1,17.37c.02,3.19.04,7.16-1.52,10.38-.24.48-.71,1.03-1.2,1.6-.99,1.14-2.11,2.44-2.02,4.04.11,2.01,2.11,3.28,3.72,4.3.48.31.93.59,1.25.85,1.54,1.24,2.43,2.46,2.72,3.72.1.46.17.89.24,1.31.22,1.41.46,2.86,1.93,4.21.33.3.68.58,1.04.86.7.55,1.38,1.09,1.92,1.84-2.87-.54-5.21-.55-7.32-.56Zm36.3-13.27c-.2,1.13-.77,2.05-1.6,2.6-2.21,1.46-5.57.02-7.32-2.24-.32-.41-.91-.49-1.33-.18-.42.32-.5.91-.19,1.32,1.52,2.03,2.29,3.87,2.36,5.64.09,2.06-.95,3.97-2.53,4.66-2.2.96-4.84-.64-5.83-2.67-.9-1.86-.78-3.94-.42-5.6.31-.55.6-1.1.85-1.62.22-.46.03-1-.41-1.23-.06-.08-.14-.16-.23-.22-.16-.11-.35-.16-.53-.16-.23,0-.46.08-.64.24-2.16,1.95-5.51,2.45-8.15,1.21-1.37-.64-2.44-1.7-2.92-2.89-.51-1.27-.34-2.75.44-3.68,1.37-1.65,4.13-1.54,6.65-1.2.47.06.92-.23,1.04-.69.13-.46-.11-.94-.54-1.12-1.58-.67-3.2-1.37-4.43-2.5-.98-.9-1.92-2.41-1.61-3.96.41-2.06,3.14-2.87,5.5-2.6,2.73.32,4.46,2.81,4.78,3.69.26.71.75.85,1.02.86.78.06,1.09-.56,1.47-1.28.56-1.05,1.5-2.81,3.45-3.16,2.2-.39,4.51.9,5.15,2.89.65,2.02-.5,4.51-2.47,5.32-.43.18-.67.64-.56,1.09s.52.75.98.73c2.33-.14,5.42.52,7.12,2.8.79,1.06,1.13,2.57.89,3.95Z"/><path class="cls-1" d="m96.93,45c-.53-.52-1.21-.96-1.99-1.33-2-.93-4.6-.98-5.59,1.1-.34.72-.42,1.6-.23,2.53.29,1.39,1.11,2.68,2.26,3.52.95.7,2.18,1.08,3.33,1.08.55,0,1.08-.09,1.56-.27,1.1-.42,1.85-1.32,2.1-2.53.24-1.14-.07-2.39-.84-3.43-.18-.24-.38-.46-.6-.68Zm-.43,3.72c-.12.58-.42.95-.92,1.14-.85.33-2.2.08-3.08-.57-.77-.57-1.33-1.43-1.52-2.37-.08-.37-.12-.9.08-1.33.22-.47.71-.62,1.24-.62.7,0,1.47.26,1.83.43.59.28,1.09.6,1.47.97,0,0,0,0,0,0,.14.14.27.28.39.44.44.59.63,1.31.5,1.91Z"/><path class="cls-1" d="m68.1,57.77c-.89.06-1.56.81-1.5,1.67.06.86.82,1.52,1.71,1.46.89-.06,1.56-.81,1.5-1.67s-.82-1.52-1.71-1.46Z"/></g></g></svg>