<?xml version="1.0" encoding="UTF-8"?><svg id="_レイヤー_2" xmlns="http://www.w3.org/2000/svg" width="28.6mm" height="34.89mm" viewBox="0 0 81.08 98.9"><defs><style>.cls-1{fill:#040000;}</style></defs><g id="object"><g><path class="cls-1" d="m33.32,18.53c-.47-.08-.95-.11-1.45-.11,0,0-.01,0-.02,0-1.24,0-2.56.25-3.92.73-3.37,1.18-6.47,4.01-5.31,7.44.41,1.19,1.3,2.28,2.58,3.15,1.58,1.07,3.5,1.65,5.42,1.65.43,0,.86-.03,1.29-.09,2.85-.4,5.59-2.29,6.65-4.6.79-1.71.65-3.49-.41-5.16-1-1.58-2.76-2.68-4.82-3.01Zm3.29,7.28c-.76,1.63-2.91,3.08-5.01,3.38-1.8.25-3.7-.19-5.21-1.21-.62-.42-1.43-1.12-1.75-2.07-.83-2.45,2.6-4.25,3.99-4.73,1.14-.4,2.23-.6,3.22-.61.37.03.77.03,1.12.09,1.44.24,2.69,1,3.36,2.05.66,1.04.75,2.08.27,3.11Z"/><path class="cls-1" d="m80.33,48.82c-9.22-2.89-18.67-2.68-26.62.6-3.6,1.48-9.89,5.09-13.22,9.86-.2-5.43-.93-11.08-2.14-16.13,1.9,2.12,4.07,3.67,6.43,4.53,4.99,1.82,11.81.12,14.02-5.28,1.55-3.8.26-8.71-3.16-11.94-1.39-1.32-3.07-2.38-5.06-3.22,4.03-1.1,7.53-3.74,8.42-7.79.54-2.44-.02-5.04-1.58-7.33-1.8-2.66-4.7-4.53-7.74-5.03-4.04-.65-8.51.72-12.25,3.65.13-3.87-1.92-7.81-5.39-9.66-4.38-2.34-10.43-.78-13.48,3.47-2.74,3.82-1.59,8.05-.92,10.39-2.82-.81-8.07-1.14-12.1,1.95C1.16,20.27-1.74,26.02,1.18,30.52c1.77,2.72,5.31,4.34,9.21,4.24,1.42-.04,2.82-.28,4.17-.63-2.29,2.36-3.91,5.1-3.65,8.34.25,3.14,2.43,6.05,5.55,7.43,1.4.62,2.98.93,4.62.93,1.5,0,3.05-.26,4.55-.78,4.49-1.55,8.11-5.31,9.71-9.77,2.12,7.02,3.2,16.14,3,23.96-.09.58-.11,1.13-.07,1.65-.12,2.39-.37,4.64-.76,6.62-2,10.07-7.46,18.98-14.99,24.44-.48.35-.58,1.02-.24,1.5.21.29.54.44.87.44.22,0,.44-.07.63-.2,7.96-5.78,13.73-15.17,15.83-25.76.22-1.13.4-2.33.54-3.59,1.78,1.39,4.55,1.79,7.35,1.79,2.34,0,4.71-.28,6.55-.5l.84-.1c7.77-.87,14.46-3.89,18.83-8.5,3.24-3.42,5.27-7.65,7.24-11.74.13-.28.14-.61.02-.89-.12-.29-.37-.5-.66-.59Zm-45.37-13.74c-.48.09-.85.49-.88.98-.35,5.31-4.11,10.23-9.13,11.97-2.64.91-5.42.88-7.61-.08-2.38-1.05-4.1-3.32-4.28-5.64-.32-4.03,3.41-7.38,7.11-10.13.43-.32.56-.91.3-1.38-.19-.35-.56-.55-.94-.55-.13,0-.26.02-.38.07-2.84,1.09-5.78,2.22-8.8,2.31-2.48.08-5.72-.76-7.36-3.27-2.22-3.41.27-7.99,3.87-10.75,4.02-3.09,9.55-2.01,11.1-1.27.85.41,1.39.19,1.69-.07.72-.61.47-1.47.1-2.78-.6-2.11-1.62-5.63.57-8.68,2.45-3.41,7.26-4.68,10.73-2.83,3.53,1.88,5.24,6.76,3.65,10.43-.21.48-.04,1.04.4,1.32.44.28,1.02.21,1.37-.18,3.63-4,8.57-6.04,12.87-5.35,2.48.4,4.84,1.94,6.31,4.12,1.22,1.8,1.67,3.81,1.26,5.66-1.11,5-7.39,7.3-12.57,6.57-.59-.09-1.12.32-1.21.9-.09.58.31,1.12.89,1.22,4.49.72,7.81,2.14,10.14,4.34,2.79,2.64,3.87,6.57,2.65,9.57-1.72,4.2-7.34,5.52-11.31,4.08-5.14-1.87-8.08-7.05-9.37-9.97-.2-.45-.68-.71-1.17-.62Zm19.56,16.31c6.12-2.52,13.22-3.1,20.38-1.74-10.06,1.81-27.54,8.73-34.06,13.43,1.87-5.19,9.01-9.77,13.67-11.69Zm17.66,9.17c-4.02,4.25-10.24,7.03-17.51,7.84l-.85.1c-3.4.4-10.48,1.23-12.71-1.19-.27-.29-.44-.64-.55-1.03,2.13-3.29,26.9-14.09,37.47-14.81-1.6,3.25-3.36,6.47-5.84,9.08Z"/></g></g></svg>