<?xml version="1.0" encoding="UTF-8"?><svg id="_レイヤー_2" xmlns="http://www.w3.org/2000/svg" width="27.67mm" height="35.61mm" viewBox="0 0 78.44 100.93"><defs><style>.cls-1{fill:#040000;}</style></defs><g id="object"><g><path class="cls-1" d="m30.2,79.93c-3.92-.15-7.75.82-11.45,1.77-2.12.54-4.31,1.1-6.48,1.43-.35.05-.63.31-.73.64-.09.34.02.7.29.93,4.11,3.39,8.99,7.09,14.86,8.12.78.14,1.55.22,2.32.28.1.04.21.07.33.07.07,0,.14-.03.21-.05.44.02.89.05,1.32.05,4.93,0,9.51-1.44,13.79-3.06.18-.07.43-.19.7-.33.3-.15.91-.47,1.08-.48.36.06.72-.11.91-.43.19-.31.16-.71-.06-1-3.77-4.87-11.62-7.72-17.09-7.93Zm12.19,5.88c-3.06-1.31-6-2-8.85-2.36,0,0,0,0,0,0-.53-.61-.83-1-1.07-1.3-.06-.07-.11-.14-.16-.2,3.32.51,7.1,1.88,10.07,3.87Zm-12.82-4.1c.06.1.13.19.23.26.71.55.86.74,1.24,1.22-1.95-.15-3.88-.19-5.78-.22-1.58-.03-3.21.04-4.81.13,3.09-.78,6.06-1.43,9.12-1.39Zm-9.48,6.72c-1.7-.97-3.31-2.11-4.82-3.28,1.36-.03,2.74-.11,4.08-.19,1.95-.12,3.97-.24,5.88-.2.72.01,1.42.03,2.1.05-2.66,1.94-5.06,3.15-7.16,3.59-.03,0-.05.02-.08.03Zm9.14,2.9c-.74-.05-1.48-.14-2.23-.27-1.6-.28-3.14-.8-4.6-1.46,2.26-.82,4.7-2.27,7.41-4.44.08-.07.14-.15.2-.23,2.05.12,3.98.33,5.87.71-.12.15-.25.31-.37.45-.87,1.07-1.62,2-2.79,2.84-.56.4-.96.71-1.3.98-.67.52-1.1.86-2.18,1.42Zm3.27,0s0,0,0,0c.33-.26.71-.55,1.24-.94,1.36-.98,2.22-2.04,3.13-3.17.29-.36.6-.74.94-1.13,2,.54,3.98,1.31,6.06,2.4-4.02,1.52-7.67,2.59-11.38,2.83Z"/><path class="cls-1" d="m12.66,60.97c1.93,1.55,4.03,2.83,6.16,4.01.03.02.07.04.1.06,1.33.73,2.67,1.41,3.99,2.09l10.32,5.27c.1.05.2.06.31.07,3.29,2.3,8.33,6.61,10.07,9.28.1.15.24.25.4.32,3.65,7.33,8.91,13.83,15.47,18.69.16.12.35.17.53.17.27,0,.54-.12.72-.36.29-.4.21-.95-.19-1.25-3.27-2.42-6.19-5.26-8.75-8.41.25.04.5.07.76.07,2.89,0,6.7-2.35,9.04-4.03,3.16-2.26,7.29-6.12,9.09-11.73,1.67-5.21.75-10.8-2.38-14.59-.2-.24-.51-.36-.82-.31-.31.05-.57.25-.69.54-1.37,3.34-4.1,6.02-6.85,8.41-.43.38-.87.75-1.31,1.12-2.46,2.1-5,4.28-6.9,7.01-1.13,1.61-3.17,5.85-3.05,9.23-2.38-3.64-4.31-7.58-5.74-11.7.17-.14.29-.35.31-.58.43-4.2,4.55-11.74,8.4-14.21.29.27.63.49,1.03.64.43.15.92.22,1.46.22,4.62,0,12.58-5.15,13.57-5.8,2.29-1.51,5.18-3.62,7.18-6.52,3.88-5.61,3.8-12.78,3.36-20.24-.02-.37-.27-.68-.62-.8-.35-.11-.73,0-.96.28-2.69,3.29-5.88,6.09-9.49,8.32-.85.52-1.72,1.02-2.59,1.51-2.2,1.25-4.48,2.54-6.39,4.33h0c-2.09,1.96-3.74,4.53-5.07,7.87-.1.26-.23.56-.37.9-1.19,2.85-2.3,5.77-1.93,7.7-3.79,2.34-7.52,8.52-8.86,13.26-2.09-7.43-2.59-15.29-1.2-22.85,3.81-1.68,12.92-9.97,15.32-13.16.67-.89,1.25-1.83,1.78-2.79,0,0,0,0,.01,0,.23-.16.35-.41.37-.67,1.95-3.82,2.87-8.23,2.86-13.56.22-.32.19-.72-.03-1.02-.17-5.23-1.62-10.87-4.46-17.21-.15-.33-.49-.54-.86-.53-.37.02-.69.26-.8.61-1.49,4.4-5.14,7.39-9,10.55-2.52,2.07-5.13,4.2-7.14,6.79-2.95,3.8-4.63,8.08-5.15,13-.04.1-.07.2-.07.32,0,.08,0,.15.01.23-.08.9-.13,1.82-.13,2.77,0,4.33,3.39,13.87,5.26,14.8.07.03.13.03.2.05-1.61,9.29-.5,19.01,2.87,27.87-2.36-2.29-5.27-4.63-7.38-6.09-1.3-6.68-4.01-13.13-6.46-18.66-1.52-3.43-2.96-6.49-5.13-9.21-2.95-3.69-6.9-6.26-10.72-8.74-.31-.2-7.03-4.55-10.05-5.57-.28-.36-.79-.46-1.18-.2-.03.02-.04.05-.07.07-.13.05-.25.13-.36.24-1.22,1.25.46,11.59.48,11.69,1.67,8.59,5.84,15.86,11.74,20.45Zm47.89,24.53c-3.59,2.57-6.68,3.88-8.35,3.66.97-2.3,2.78-4.28,4.64-6.17.02.01.03.03.05.04,1.47.91,2.86,1.26,4.18,1.26.39,0,.78-.03,1.16-.09-.57.48-1.14.92-1.67,1.31Zm4.5-4.06s-.05,0-.07.02c-2.92,1.32-4.82,1.38-6.86.22.67-.68,1.34-1.37,1.95-2.07.3-.34.62-.7.95-1.07.59-.67,1.23-1.4,1.88-2.16.95.31,1.95.48,2.94.48.82,0,1.64-.12,2.43-.33-.85,1.89-1.99,3.52-3.22,4.93Zm3.59-16.73c1.2,2.89,1.38,6.38.42,9.64-1.52.7-3.29.87-4.93.5,2.38-3.03,4.52-6.57,4.51-10.15Zm-8.48,6.95c.04-.09.06-.19.07-.28.29-.25.58-.5.87-.75,2.1-1.83,4.2-3.84,5.77-6.2.22,4.41-3.77,9.05-6.92,12.62-.73-1.66-.66-3.56.21-5.39Zm-7.01,7.02c.05-.1.07-.2.08-.3,1.26-1.79,2.85-3.35,4.51-4.84-.22,1.58.01,3.14.72,4.57.07.13.17.24.28.32,0,0-.01.01-.02.02-.77.88-1.61,1.73-2.5,2.63-.82.83-1.65,1.67-2.43,2.55-1.38-1.42-1.59-3.03-.64-4.94Zm-2.02,4.09c.3.79.8,1.54,1.51,2.23-.74.95-1.39,1.95-1.9,3.03-.57-1.3-.25-3.33.39-5.26Zm2.56-23.55c2.18-1.77,4.29-3.64,6.33-5.6,2.1.5,3.73.74,5.48.74.08,0,.17,0,.26,0-3.77,2.36-9.51,5.25-12.07,4.87Zm22.94-26.78c.1,3.79-.07,7.42-1.05,10.66-2.42,2.13-6.28,2.96-8.2,2.58,3.5-4.21,6.62-8.67,9.25-13.25Zm-11.48,7.24c.03-.07.04-.14.06-.21.08-.04.15-.09.23-.13.89-.5,1.78-1.01,2.65-1.55,2.15-1.33,4.15-2.87,6-4.57-2.53,4.18-5.48,8.25-8.75,12.1-.97-1.95-1.05-3.94-.2-5.64Zm.98,7.47c.64.28,1.42.41,2.3.41,1.85,0,4.07-.59,5.99-1.58-.3.59-.64,1.15-1.02,1.7-1.33,1.92-3.11,3.48-4.82,4.73-.11-.03-.22-.04-.34-.03-2.52.28-4.33.22-6.73-.27,1.59-1.61,3.13-3.27,4.61-4.97Zm-8.03-2.35c.41-.5.85-.96,1.3-1.39,1.06-1,2.25-1.82,3.51-2.59-.35,1.92.05,4,1.19,5.95-2.02,2.29-4.16,4.48-6.38,6.57-.87-1.26-1.33-5.02.38-8.54Zm-3.72,6.76c.15-.35.28-.66.38-.93.13-.33.26-.64.4-.95-.03,2.05.43,3.84,1.23,4.87-1.27,1.15-2.57,2.26-3.89,3.33-.08-1.64,1.16-4.63,1.87-6.32Zm-13.26-4.78s-.01-.03-.02-.04c.07-.12.13-.25.14-.4.22-3.05,1.02-6.11,2.14-9.17.11.05.23.09.36.09.13,0,.27,0,.41,0,2.99,0,7.13-1.03,10.46-2.49-2.6,3.45-10.11,9.88-13.49,12Zm15.38-15.01c-3.16,2.04-8.88,3.75-12.47,3.71,1.4-3.48,3.16-6.94,4.89-10.35.03-.06.06-.12.09-.18.06.02.11.04.17.04.14,0,.27.01.41.01,2.78,0,6.65-1.45,9.65-4.23-.2,4.26-1.1,7.84-2.75,10.99Zm.11-26.47c1.72,4.65,2.59,8.89,2.68,12.86-2.57,3.13-6.56,4.93-9.38,5.04,2.94-5.83,5.76-11.82,6.7-17.9Zm-13.14,10.61c.03-.11.03-.21.02-.32,1.15-1.05,2.37-2.05,3.57-3.03,2.88-2.36,5.83-4.78,7.83-7.86-.93,6.59-4.3,13.22-7.56,19.63-.73,1.44-1.47,2.9-2.19,4.36-1.21-2.42-2.73-8.92-1.68-12.78Zm-3.26,3.16h0c.37-.48.78-.94,1.19-1.4-.34,4.68,1.28,11.03,2.85,12.9-1.4,2.99-2.66,6-3.55,9.05-.07-.04-.14-.07-.22-.09-1.59-.27-4.48-2.73-5.19-6.5.22-5.38,1.82-9.96,4.92-13.96Zm-.83,27.71c-.03.15-.06.29-.09.44-.91-1.24-2.73-5.6-3.59-9.44,1.34,1.84,3.08,3.03,4.52,3.27.03,0,.06,0,.09,0-.43,1.72-.73,3.44-.85,5.17,0,.1.01.2.04.29-.05.08-.1.17-.12.26Zm-19.69,16.66c-2.07-1.14-4.09-2.38-5.92-3.85,0,0,0,0,0,0-2.09-1.63-3.97-3.67-5.58-6.01,2.28.72,4.67,1.1,7.07,1.1.86,0,1.73-.05,2.59-.14.02,0,.04-.02.06-.02,2.17,2.77,4.37,5.42,6.56,7.84l.43.48c-1.95.57-3.53.92-5.2.61Zm4.04,2.12c-.27-.14-.54-.28-.81-.42,1.08-.19,2.11-.49,3.07-.78.07-.02.13-.06.19-.1,1.22,1.37,2.41,2.78,3.41,4.29l-5.86-3Zm2.58-12.58c2.32,5.23,4.66,10.8,6.01,16.7-1.55-3.02-3.84-5.55-6.07-8.01l-.47-.52c-.79-.87-1.58-1.79-2.38-2.71,1.43-2.04,2.34-3.99,2.71-5.9.07.15.13.29.2.44Zm-4.89-8.82c1.2,1.5,2.17,3.15,3.07,4.92-.02.1-.04.2-.02.31.31,2.4-.44,4.9-2.26,7.62-2.7-3.25-5.38-6.77-8.01-10.4,1.66-2.44,1.9-4.67,2.01-7.34,1.92,1.44,3.72,3.02,5.22,4.88Zm-10.3-8.36c1.13.73,2.27,1.48,3.38,2.25-.02.06-.04.12-.05.19v.15c-.11,2.72-.19,4.61-1.39,6.66-3.2-4.49-6.29-9.1-9.2-13.54,2.23,1.16,5.15,2.92,7.25,4.29Zm5.47,17.03c-3.27.21-6.57-.33-9.6-1.58-.1-.04-.2-.05-.3-.06-1.86-3.28-3.24-7.03-4.02-11.01-.33-1.68-.82-6.13-.9-8.63,4.56,6.99,9.61,14.47,14.82,21.28Z"/></g></g></svg>