<?xml version="1.0" encoding="UTF-8"?><svg id="_レイヤー_2" xmlns="http://www.w3.org/2000/svg" width="151.69" height="93.62" viewBox="0 0 151.69 93.62"><defs><style>.cls-1{fill:#b53935;}</style></defs><g id="_扇子_隙間"><g><path class="cls-1" d="m49.49,66.46c-1.37,1.15-2.59,2.46-3.79,3.79l.85-.25c-5.08-3.02-10.17-6.04-15.25-9.06-8.1-4.81-16.19-9.62-24.29-14.43-1.85-1.1-3.69-2.19-5.54-3.29l.26,4.57c2.9-2.8,5.99-5.39,9.25-7.75h-.58c4.41,3.52,8.81,7.04,13.22,10.57l21.06,16.83c1.6,1.28,3.21,2.57,4.81,3.85.82.66,1.3-1.32,1.35-1.75.12-.97.07-2.41-.77-3.08-4.41-3.52-8.81-7.04-13.22-10.57l-21.06-16.83c-1.6-1.28-3.21-2.57-4.81-3.85-.19-.12-.39-.12-.58,0-3.46,2.51-6.7,5.28-9.78,8.25-.86.83-.87,3.9.26,4.57,5.08,3.02,10.17,6.04,15.25,9.06,8.1,4.81,16.19,9.62,24.29,14.43,1.85,1.1,3.69,2.19,5.54,3.29.34.2.62,0,.85-.25.61-.67,1.2-1.35,1.85-1.98.25-.24.5-.49.76-.73.12-.12.25-.25.37-.36-.35.31.22-.16.28-.21.83-.7.89-2.08.77-3.08-.05-.4-.55-2.42-1.35-1.75Z"/><path class="cls-1" d="m11.13,40.62c11.4,9.11,22.8,18.22,34.2,27.33,1.39,1.11,2.77,2.22,4.16,3.33.48.39.89-.33,1.07-.64.75-1.32,1.53-2.62,2.45-3.82.74-.96.88-3.39,0-4.32-4.07-4.29-8.13-8.59-12.2-12.88-6.48-6.84-12.95-13.67-19.43-20.51-1.48-1.56-2.96-3.12-4.43-4.68-.33-.35-.79-.5-1.11,0-.83,1.32-1.6,2.68-2.35,4.06-.52.95-.47,2.57,0,3.54s1.09.86,1.56,0c.6-1.11,1.23-2.2,1.91-3.28h-1.11c4.07,4.29,8.13,8.59,12.2,12.88l19.43,20.51c1.48,1.56,2.96,3.12,4.43,4.68v-4.32c-1.11,1.45-2,3.02-2.9,4.61l1.07-.64c-10.48-8.37-20.96-16.75-31.43-25.12l-6.93-5.54c-.82-.66-1.3,1.32-1.35,1.75-.12.97-.07,2.41.77,3.08h0Z"/><path class="cls-1" d="m77.82,88.6c-8.63-5.97-17.27-11.94-25.9-17.92-1.22-.84-2.44-1.69-3.66-2.53s-1.89,3.92-.58,4.82c8.63,5.97,17.27,11.94,25.9,17.92,1.22.84,2.44,1.69,3.66,2.53s1.89-3.92.58-4.82h0Z"/><path class="cls-1" d="m27.42,19.09c-3.9,1.43-7.66,3.13-11.31,5.09-1.16.62-1.08,3.71-.26,4.57,4.07,4.29,8.13,8.59,12.2,12.88l19.43,20.51c1.48,1.56,2.96,3.12,4.43,4.68.22.24.51.47.85.25,1.4-.91,2.84-1.73,4.36-2.44,1.29-.61.92-3.65.26-4.57-3.28-4.59-6.56-9.18-9.84-13.77-5.23-7.31-10.45-14.62-15.68-21.93-1.19-1.67-2.39-3.34-3.58-5.01-.66-.92-1.34.28-1.51.9-.28,1.04-.26,2.5.39,3.42,3.28,4.59,6.56,9.18,9.84,13.77,5.23,7.31,10.45,14.62,15.68,21.93,1.19,1.67,2.39,3.34,3.58,5.01l.26-4.57c-1.51.71-2.95,1.53-4.36,2.44l.85.25c-4.07-4.29-8.13-8.59-12.2-12.88-6.48-6.84-12.95-13.67-19.43-20.51-1.48-1.56-2.96-3.12-4.43-4.68l-.26,4.57c3.66-1.96,7.42-3.66,11.31-5.09,1.36-.5,1.06-5.42-.58-4.82Z"/><path class="cls-1" d="m48.14,32.01c-3.73-7.11-7.46-14.22-11.18-21.32-.15-.28-.62-1.06-1.07-.64-3.12,2.91-6.04,5.99-8.73,9.3-.84,1.04-.75,3.26,0,4.32,3.28,4.59,6.56,9.18,9.84,13.77,5.23,7.31,10.45,14.62,15.68,21.93l3.58,5.01c.34.48.75.37,1.11,0,1.08-1.11,2.24-2.12,3.46-3.08,1.04-.82,1.05-3.09.49-4.18-3.13-5.96-6.25-11.92-9.38-17.88-.45-.85-1.12-.9-1.56,0s-.5,2.59,0,3.54c3.13,5.96,6.25,11.92,9.38,17.88l.49-4.18c-1.41,1.11-2.73,2.3-3.98,3.58h1.11c-3.28-4.59-6.56-9.18-9.84-13.77-5.23-7.31-10.45-14.62-15.68-21.93-1.19-1.67-2.39-3.34-3.58-5.01v4.32c2.53-3.13,5.26-6.06,8.2-8.8l-1.07-.64c3.73,7.11,7.46,14.22,11.18,21.32.45.85,1.12.9,1.56,0s.5-2.59,0-3.54h0Z"/><path class="cls-1" d="m62.36,75.6c4.85,5.88,9.7,11.77,14.55,17.65.7.85,1.33-.22,1.51-.9.26-.98.3-2.58-.39-3.42-4.85-5.88-9.7-11.77-14.55-17.65-.7-.85-1.33.22-1.51.9-.26.98-.3,2.58.39,3.42h0Z"/><path class="cls-1" d="m54.05,65.51c1.47,1.78,2.93,3.56,4.4,5.34.22.27.51.44.85.25.35-.2.57-.8.66-1.15.15-.62.2-1.29.11-1.93-.07-.5-.17-1.09-.51-1.49-1.47-1.78-2.93-3.56-4.4-5.34-.22-.27-.51-.44-.85-.25-.35.2-.57.8-.66,1.15-.15.62-.2,1.29-.11,1.93.07.5.17,1.09.51,1.49h0Z"/><path class="cls-1" d="m56.69,54.81c1.02,1.95,2.04,3.9,3.07,5.84.25.48.5.84,1.07.64,1.49-.5,3.03-.79,4.56-1.08s1.14-3.27.78-4.27c-1.91-5.31-3.82-10.62-5.73-15.93-3.04-8.46-6.09-16.91-9.13-25.37-.7-1.93-1.39-3.87-2.09-5.8-.09-.26-.43-.76-.78-.73-4.12.36-8.23.88-12.26,1.83-1.42.33-1.3,3.28-.78,4.27,3.42,6.52,6.84,13.04,10.26,19.56.45.85,1.12.9,1.56,0s.5-2.59,0-3.54c-3.42-6.52-6.84-13.04-10.26-19.56l-.78,4.27c4.04-.95,8.14-1.47,12.26-1.83l-.78-.73c1.91,5.31,3.82,10.62,5.73,15.93,3.04,8.46,6.09,16.91,9.13,25.37.7,1.93,1.39,3.87,2.09,5.8l.78-4.27c-1.74.33-3.47.69-5.15,1.26l1.07.64c-1.02-1.95-2.04-3.9-3.07-5.84-.45-.85-1.12-.9-1.56,0s-.5,2.59,0,3.54h0Z"/><path class="cls-1" d="m69.83,58.07l.33-.15c1.07-.48.83-2.87.66-3.67-1.22-5.79-2.44-11.57-3.65-17.36-1.94-9.21-3.88-18.43-5.82-27.64-.44-2.1-.88-4.2-1.33-6.31-.11-.52-.55-1.51-1.24-1.15-1.14.6-2.29,1.21-3.42,1.84-1.34.74-.83,5.6.58,4.82,1.13-.63,2.28-1.23,3.42-1.84l-1.24-1.15c1.22,5.79,2.44,11.57,3.65,17.36,1.94,9.21,3.88,18.43,5.82,27.64.44,2.1.88,4.2,1.33,6.31l.66-3.67-.33.15c-1.36.6-.97,5.51.58,4.82h0Z"/><path class="cls-1" d="m50.57,6.56c-.82.54-1.63,1.08-2.42,1.65-1.16.84-.89,3.04-.49,4.18,1.79,4.97,3.58,9.95,5.37,14.92,2.99,8.31,5.98,16.63,8.97,24.94.85,2.35,1.69,4.7,2.54,7.05.35.96,1.16.8,1.56,0,.51-1.06.39-2.46,0-3.54-2.06-5.72-4.12-11.44-6.17-17.16-2.92-8.11-5.83-16.21-8.75-24.32-.65-1.81-1.31-3.63-1.96-5.44l-.49,4.18c.8-.57,1.6-1.12,2.42-1.65,1.3-.85.7-5.66-.58-4.82h0Z"/><path class="cls-1" d="m78.2,89.35c-4.23-9.61-8.45-19.22-12.68-28.83l-1.79-4.07c-.4-.91-1.14-.85-1.56,0-.49,1-.44,2.52,0,3.54,4.23,9.61,8.45,19.22,12.68,28.83l1.79,4.07c.4.91,1.14.85,1.56,0,.49-1,.44-2.52,0-3.54h0Z"/><path class="cls-1" d="m72.86,10.83c-.13-1.91-.26-3.81-.4-5.72-.04-.64-.31-1.7-1.06-1.84-4.08-.77-8.18-1.35-12.33-1.58-1.37-.08-1.09,3.08-.95,3.76,1.22,5.79,2.44,11.57,3.65,17.36,1.94,9.21,3.88,18.43,5.82,27.64.44,2.1.88,4.2,1.33,6.31.09.41.4,1.25.95,1.24,1.67-.04,3.32.07,4.99.19,1.17.09,1.1-2.62,1.06-3.16-.56-8.04-1.11-16.09-1.67-24.13-.04-.64-.44-2.14-1.35-1.75s-.82,2.35-.77,3.08c.56,8.04,1.11,16.09,1.67,24.13l1.06-3.16c-1.67-.13-3.32-.24-4.99-.19l.95,1.24c-1.22-5.79-2.44-11.57-3.65-17.36-1.94-9.21-3.88-18.43-5.82-27.64-.44-2.1-.88-4.2-1.33-6.31l-.95,3.76c4.15.23,8.25.81,12.33,1.58l-1.06-1.84c.13,1.91.26,3.81.4,5.72.04.64.44,2.14,1.35,1.75s.82-2.35.77-3.08h0Z"/><path class="cls-1" d="m71.82,27.75c.66,9.54,1.32,19.08,1.98,28.62.03.38.36,1.99,1.06,1.84,1.64-.36,3.25-.65,4.91-.89.73-.1,1.02-1.23,1.06-1.84.41-5.9.82-11.8,1.22-17.7.65-9.39,1.3-18.79,1.95-28.18.15-2.14.3-4.29.44-6.43.03-.42.08-3.4-1.06-3.16-4.17.86-8.25,1.98-12.28,3.36-.92.31-.81,2.44-.77,3.08.26,3.82.53,7.64.79,11.47.04.64.44,2.14,1.35,1.75s.82-2.35.77-3.08c-.26-3.82-.53-7.64-.79-11.47l-.77,3.08c3.84-1.31,7.73-2.36,11.7-3.18l-1.06-3.16c-.41,5.9-.82,11.8-1.22,17.7-.65,9.39-1.3,18.79-1.95,28.18-.15,2.14-.3,4.29-.44,6.43l1.06-1.84c-1.66.24-3.27.53-4.91.89l1.06,1.84c-.66-9.54-1.32-19.08-1.98-28.62-.04-.64-.44-2.14-1.35-1.75s-.82,2.35-.77,3.08h0Z"/><path class="cls-1" d="m71.32,56.19c1.45,10.4,2.89,20.8,4.34,31.2.2,1.47.41,2.94.61,4.41.09.63.41,2.15,1.35,1.75.88-.38.87-2.37.77-3.08-1.45-10.4-2.89-20.8-4.34-31.2-.2-1.47-.41-2.94-.61-4.41-.09-.63-.41-2.15-1.35-1.75-.88.38-.87,2.37-.77,3.08h0Z"/><path class="cls-1" d="m95.11,5c-3.69-1.91-7.52-3.48-11.43-4.9-.93-.34-1.31,1.08-1.35,1.75-.41,5.9-.82,11.8-1.22,17.7-.65,9.39-1.3,18.79-1.95,28.18-.15,2.14-.3,4.29-.44,6.43-.07.94-.12,2.82,1.06,3.16,1.51.44,2.99.89,4.45,1.47.71.29,1.12-.57,1.24-1.15,1.16-5.52,2.32-11.04,3.49-16.56,1.85-8.79,3.7-17.59,5.55-26.38.42-2.01.85-4.02,1.27-6.03.21-.99.36-2.59-.39-3.42s-1.35.15-1.51.9c-1.16,5.52-2.32,11.04-3.49,16.56-1.85,8.79-3.7,17.59-5.55,26.38-.42,2.01-.85,4.02-1.27,6.03l1.24-1.15c-1.65-.66-3.33-1.16-5.04-1.65l1.06,3.16c.41-5.9.82-11.8,1.22-17.7.65-9.39,1.3-18.79,1.95-28.18.15-2.14.3-4.29.44-6.43l-1.35,1.75c3.91,1.41,7.74,2.98,11.43,4.9,1.44.75,1.95-4.11.58-4.82Z"/><path class="cls-1" d="m98.35,4.76c-1.18.04-2.35.09-3.53.15-.56.03-.86.79-.95,1.24-1.16,5.52-2.32,11.04-3.49,16.56-1.85,8.79-3.7,17.59-5.55,26.38-.42,2.01-.85,4.02-1.27,6.03-.17.8-.44,3.68.95,3.76,1.66.1,3.33.19,4.97.49.34.06.7-.51.78-.73,2-5.56,4-11.13,6.01-16.69,3.19-8.86,6.38-17.72,9.56-26.58.73-2.02,1.45-4.04,2.18-6.06.32-.89.77-4.13-.78-4.27-.79-.07-1.57-.13-2.37-.17-1.5-.07-1.59,4.93,0,5,.79.04,1.58.1,2.37.17l-.78-4.27c-2,5.56-4,11.13-6.01,16.69-3.19,8.86-6.38,17.72-9.56,26.58-.73,2.02-1.45,4.04-2.18,6.06l.78-.73c-1.64-.3-3.3-.4-4.97-.49l.95,3.76c1.16-5.52,2.32-11.04,3.49-16.56,1.85-8.79,3.7-17.59,5.55-26.38.42-2.01.85-4.02,1.27-6.03l-.95,1.24c1.18-.06,2.35-.11,3.53-.15,1.57-.05,1.53-5.05,0-5h0Z"/><path class="cls-1" d="m81.12,54.86c-1.45,10.4-2.89,20.8-4.34,31.2-.2,1.47-.41,2.94-.61,4.41-.11.8-.12,2.64.77,3.08s1.28-1.19,1.35-1.75c1.45-10.4,2.89-20.8,4.34-31.2.2-1.47.41-2.94.61-4.41.11-.8.12-2.64-.77-3.08s-1.28,1.19-1.35,1.75h0Z"/><path class="cls-1" d="m117.42,13.19c-3.08-2.96-6.42-5.58-9.9-8.06-.46-.33-.94.27-1.07.64-2,5.56-4,11.13-6.01,16.69-3.19,8.86-6.38,17.72-9.56,26.58-.73,2.02-1.45,4.04-2.18,6.06-.38,1.05-.72,3.45.49,4.18,1.43.86,2.84,1.74,4.14,2.79.47.39.9-.33,1.07-.64,2.62-5,5.24-9.99,7.86-14.99,4.17-7.96,8.35-15.92,12.52-23.87.95-1.82,1.91-3.64,2.86-5.46.51-.97.47-2.56,0-3.54-.44-.92-1.1-.88-1.56,0-2.62,5-5.24,9.99-7.86,14.99-4.17,7.96-8.35,15.92-12.52,23.87-.95,1.82-1.91,3.64-2.86,5.46l1.07-.64c-1.3-1.05-2.71-1.93-4.14-2.79l.49,4.18c2-5.56,4-11.13,6.01-16.69,3.19-8.86,6.38-17.72,9.56-26.58.73-2.02,1.45-4.04,2.18-6.06l-1.07.64c3.26,2.33,6.47,4.77,9.37,7.56,1.51,1.45,2.14-3.33,1.11-4.32Z"/><path class="cls-1" d="m93.33,62.08c1.59.51,3.14,1.1,4.65,1.82.33.16.63.05.85-.25,3.44-4.81,6.88-9.62,10.32-14.43,5.48-7.66,10.95-15.32,16.43-22.98l3.75-5.24c.49-.69.58-1.68.53-2.49-.04-.53-.16-1.84-.79-2.08-3.98-1.48-8.04-2.66-12.19-3.57-.36-.08-.67.53-.78.73-2.62,5-5.24,9.99-7.86,14.99-4.17,7.96-8.35,15.92-12.52,23.87-.95,1.82-1.91,3.64-2.86,5.46-.51.97-.47,2.56,0,3.54.44.92,1.1.88,1.56,0,2.62-5,5.24-9.99,7.86-14.99,4.17-7.96,8.35-15.92,12.52-23.87.95-1.82,1.91-3.64,2.86-5.46l-.78.73c3.95.87,7.81,1.99,11.6,3.4l-.26-4.57c-3.44,4.81-6.88,9.62-10.32,14.43-5.48,7.66-10.95,15.32-16.43,22.98l-3.75,5.24.85-.25c-1.51-.72-3.06-1.31-4.65-1.82-1.68-.54-1.96,4.38-.58,4.82Z"/><path class="cls-1" d="m77.92,92.88c4.23-9.61,8.45-19.22,12.68-28.83.6-1.36,1.19-2.72,1.79-4.07.45-1.03.49-2.51,0-3.54-.42-.86-1.14-.94-1.56,0-4.23,9.61-8.45,19.22-12.68,28.83-.6,1.36-1.19,2.72-1.79,4.07-.45,1.03-.49,2.51,0,3.54.42.86,1.14.94,1.56,0h0Z"/><path class="cls-1" d="m136.47,26.81c-2.15-3.55-4.53-6.92-7.16-10.13-.33-.4-.79-.45-1.11,0-3.44,4.81-6.88,9.62-10.32,14.43-5.48,7.66-10.95,15.32-16.43,22.98l-3.75,5.24c-.7.98-.91,3.38,0,4.32,1.17,1.2,2.23,2.47,3.23,3.81.35.47.75.38,1.11,0,3.88-4.1,7.76-8.19,11.64-12.29,6.18-6.52,12.36-13.05,18.54-19.57,1.41-1.49,2.83-2.98,4.24-4.47.97-1.03.32-5.82-1.11-4.32-3.88,4.1-7.76,8.19-11.64,12.29-6.18,6.52-12.36,13.05-18.54,19.57-1.41,1.49-2.83,2.98-4.24,4.47h1.11c-1-1.34-2.06-2.61-3.23-3.81v4.32c3.44-4.81,6.88-9.62,10.32-14.43,5.48-7.66,10.95-15.32,16.43-22.98l3.75-5.24h-1.11c2.63,3.21,5,6.59,7.16,10.13.6.99,1.36-.34,1.51-.9.29-1.11.21-2.43-.39-3.42Z"/><path class="cls-1" d="m101.21,67.71c1.42.88,2.7,1.94,3.98,3.01.19.12.39.12.58,0,4.62-3.69,9.24-7.38,13.86-11.08,7.36-5.88,14.71-11.76,22.07-17.64,1.68-1.34,3.36-2.68,5.04-4.02,1.12-.9,1.21-3.95,0-4.82-3.37-2.42-6.83-4.71-10.52-6.61-.36-.19-.6-.01-.85.25-3.88,4.1-7.76,8.19-11.64,12.29-6.18,6.52-12.36,13.05-18.54,19.57-1.41,1.49-2.83,2.98-4.24,4.47-.97,1.03-.32,5.82,1.11,4.32,3.88-4.1,7.76-8.19,11.64-12.29,6.18-6.52,12.36-13.05,18.54-19.57,1.41-1.49,2.83-2.98,4.24-4.47l-.85.25c3.69,1.91,7.15,4.19,10.52,6.61v-4.82c-4.62,3.69-9.24,7.38-13.86,11.08-7.36,5.88-14.71,11.76-22.07,17.64-1.68,1.34-3.36,2.68-5.04,4.02h.58c-1.28-1.07-2.56-2.13-3.98-3.01-1.3-.81-1.92,3.99-.58,4.82Z"/><path class="cls-1" d="m77.65,93.25c5.22-6.33,10.43-12.66,15.65-18.99.7-.85.66-2.42.39-3.42-.18-.69-.79-1.76-1.51-.9-5.22,6.33-10.43,12.66-15.65,18.99-.7.85-.66,2.42-.39,3.42.18.69.79,1.76,1.51.9h0Z"/><path class="cls-1" d="m97.39,69.31c1.04-1.27,2.09-2.53,3.13-3.8.31-.38.45-1.03.51-1.49.08-.6.06-1.34-.11-1.93l-.17-.51c-.1-.26-.26-.48-.49-.64l-.29-.09c-.24.02-.42.14-.56.34-1.04,1.27-2.09,2.53-3.13,3.8-.31.38-.45,1.03-.51,1.49-.08.6-.06,1.34.11,1.93l.17.51c.1.26.26.48.49.64l.29.09c.24-.02.42-.14.56-.34h0Z"/><path class="cls-1" d="m130.53,61.79c6.78-4.03,13.56-8.05,20.34-12.08,1.01-.6.91-2.77.66-3.67-1.15-4.17-2.58-8.26-4.31-12.23-.15-.34-.61-1.01-1.07-.64-4.62,3.69-9.24,7.38-13.86,11.08-7.36,5.88-14.71,11.76-22.07,17.64-1.68,1.34-3.36,2.68-5.04,4.02-1.02.81-1.09,3.11-.49,4.18.82,1.45,1.46,3,2.07,4.54.16.41.58.94,1.07.64,5.62-3.34,11.24-6.68,16.86-10.02,1.32-.79.77-5.63-.58-4.82-5.62,3.34-11.24,6.68-16.86,10.02l1.07.64c-.61-1.55-1.25-3.09-2.07-4.54l-.49,4.18c4.62-3.69,9.24-7.38,13.86-11.08,7.36-5.88,14.71-11.76,22.07-17.64,1.68-1.34,3.36-2.68,5.04-4.02l-1.07-.64c1.59,3.65,2.91,7.38,3.96,11.21l.66-3.67c-6.78,4.03-13.56,8.05-20.34,12.08-1.32.79-.77,5.63.58,4.82h0Z"/><path class="cls-1" d="m77.33,93.42c8.63-5.97,17.27-11.94,25.9-17.92,1.22-.84,2.44-1.69,3.66-2.53,1.28-.89.65-5.68-.58-4.82-8.63,5.97-17.27,11.94-25.9,17.92-1.22.84-2.44,1.69-3.66,2.53-1.28.89-.65,5.68.58,4.82h0Z"/></g></g></svg>