<?xml version="1.0" encoding="UTF-8"?><svg id="_レイヤー_2" xmlns="http://www.w3.org/2000/svg" width="191.52" height="101.85" viewBox="0 0 191.52 101.85"><defs><style>.cls-1{fill:#b53935;}</style></defs><g id="_雲_隙間"><g><path class="cls-1" d="m78.79,77.94c-7.97,5.84-18.33,7.71-27.75,4.39-8.33-2.93-15.11-10.51-15.33-19.58-.1-4.12-3.18-4.21-3.08,0,.25,10.02,4.74,19.56,13.73,24.59,10.48,5.86,23.77,4.3,33.25-2.65,1.77-1.3.84-7.97-.82-6.75h0Z"/><path class="cls-1" d="m51.7,58.95c-.48,4.22.83,10.18,6.28,9.74,5.02-.41,6.45-6.38,5.95-10.52-.57-4.76-4.03-8.9-9.15-8.4s-7.78,4.95-8.38,9.52c-1.36,10.36,8.06,20.13,18.41,14.61,9.23-4.92,9.5-19.01,4.34-26.91-7.92-12.14-25.3-9.1-32.14,2.37-.78,1.31-1.1,3.32-.55,4.79.26.69,1.23,2.73,2.11,1.26,3.58-6,9.76-9.74,16.87-9.3,7.2.44,15.59,6.59,13.62,14.72-1.69,6.98-10.9,9.88-16.57,5.65-4.16-3.1-3.64-8.53,1.69-9.64,1.36-.28,3.3-.16,4.52.61,6.14,3.87-4.21,5.07-4.02,3.37.35-3.09-2.43-6.59-2.97-1.86h0Z"/><path class="cls-1" d="m162.66,85.04c9.92-.44,19.15-4.13,27.65-8.87,1.58-.88,1.78-6.64-.41-6.87-10.34-1.1-20.66-2.87-30.57-6.11l1.08,2.44c-.63-6.83-3.1-12.95-7.76-18.03l.55,4.79c3.49-13.95-1.58-28.66-14.59-35.6-1.99-1.06-2.72,5.73-.82,6.75,8.28,4.42,14.72,12.99,13.27,22.8-.44,3-1.33,5.21.52,7.84,3.07,4.36,5.34,7.79,5.85,13.31.06.6.33,2.2,1.08,2.44,10.18,3.34,20.74,5.23,31.38,6.36l-.41-6.87c-8.29,4.63-17.12,8.19-26.83,8.62-2.21.1-2.12,7.09,0,7h0Z"/><path class="cls-1" d="m129.72,14.01c-4.22-.46-8.04-.16-12.11,1.03l1.09,1.03c-8.84-18.86-34.87-21.45-48.01-5.58h1.55C60.84-5.61,35.78-2.23,26.42,14.19c-.76,1.34-1.1,3.3-.55,4.79.25.67,1.26,2.75,2.11,1.26,8.62-15.12,32.1-18.7,42.72-3.71.45.64,1.09.56,1.55,0,11.62-14.04,36.26-12.63,44.27,4.48.12.26.62,1.16,1.09,1.03,4.07-1.19,7.9-1.48,12.11-1.03,2,.22,2.28-6.75,0-7h0Z"/><path class="cls-1" d="m20.21,14.94c-29.75,7.42-25.89,59.88,6.59,57.55,2.23-.16,2.08-7.15,0-7-10.96.79-20.79-6.04-23.37-16.88-2.87-12.05,5.05-23.74,16.78-26.67,2.31-.58,1.77-7.44,0-7h0Z"/><path class="cls-1" d="m32.96,68.62c1.75,7.7,6.18,14.5,12.97,18.68,3.17,1.95,6.8,3.27,10.48,3.86,2.46.39,5.01.45,7.48.16.58-.07,6.01-1.11,5.68-1.62,1.42,2.22,2.64-4.36,1.55-6.04l-.24-.37c-.3-.47-.72-.51-1.19-.35-14.19,4.9-30.66-2.81-34.09-17.85-1-4.41-3.17,1.3-2.66,3.53h0Z"/><path class="cls-1" d="m75.24,95.84c6.45,4.8,14.49,6.91,22.48,5.66,3.52-.55,7.01-1.72,10.09-3.52,1.78-1.04,5.72-5.71,7.39-5.81,1.04-.07,3.21,1.99,4.18,2.5,1.48.77,3.03,1.36,4.63,1.83,4.04,1.18,8.32,1.42,12.46.73,7.32-1.22,13.6-5.11,18.2-10.88,1.24-1.55.19-8.24-1.55-6.04-9.17,11.51-26.39,13.83-37.8,4.25-.4-.34-.95.05-1.19.35-9.24,11.69-26.37,12.9-38.07,4.19-1.62-1.2-2.61,5.42-.82,6.75h0Z"/></g></g></svg>