<?xml version="1.0" encoding="UTF-8"?><svg id="_レイヤー_2" xmlns="http://www.w3.org/2000/svg" width="130" height="393.15" viewBox="0 0 130 393.15"><defs><style>.cls-1{fill:#f2c641;}.cls-2{fill:#f2b749;}.cls-3{fill:#bf2c2c;}.cls-4{fill:#d15435;}.cls-5{stroke-width:2px;}.cls-5,.cls-6,.cls-7,.cls-8{fill:none;stroke-linecap:round;stroke-linejoin:round;}.cls-5,.cls-6,.cls-8{stroke:#f2c641;}.cls-6,.cls-7{stroke-width:4px;}.cls-7{stroke:#bf2c2c;}.cls-8{stroke-width:3px;}</style></defs><g id="_レイヤー_1-2"><g><line class="cls-6" x1="65.52" y1="176.75" x2="65.52" y2="2"/><path class="cls-3" d="m38.02,292.98h55v5.34c0,2.57-2.09,4.66-4.66,4.66h-45.68c-2.57,0-4.66-2.09-4.66-4.66v-5.34h0Z"/><path class="cls-3" d="m80,214.04h-30c-1.38,0-2.5-1.12-2.5-2.5v-17.29c0-9.65,7.85-17.5,17.5-17.5s17.5,7.85,17.5,17.5v17.29c0,1.38-1.12,2.5-2.5,2.5Zm-27.5-5h25v-14.79c0-6.89-5.61-12.5-12.5-12.5s-12.5,5.61-12.5,12.5v14.79Z"/><path class="cls-3" d="m42.16,204.34h45.68c2.57,0,4.66,2.09,4.66,4.66v5.34h-55v-5.34c0-2.57,2.09-4.66,4.66-4.66Z"/><rect class="cls-4" x="0" y="214.26" width="130" height="80" rx="40" ry="40"/><rect class="cls-1" x="0" y="214.26" width="130" height="80" rx="40" ry="40"/><g><path class="cls-2" d="m129.81,250.42c-.06-.67-.14-1.34-.24-2.01-42.41,11.74-86.65,11.3-128.92-1.32-.12.66-.22,1.32-.31,1.99,22,6.54,44.53,9.82,67.06,9.82,20.95,0,41.89-2.84,62.41-8.49Z"/><path class="cls-2" d="m67.4,243.46c19.52,0,39.05-2.47,58.23-7.38-.31-.61-.64-1.22-.99-1.81-39.1,9.93-79.63,9.56-118.63-1.1-.36.59-.72,1.18-1.05,1.79,20.53,5.66,41.49,8.5,62.44,8.5Z"/><path class="cls-2" d="m18.22,220.72c-.76.5-1.51,1.01-2.23,1.55,16.98,3.82,34.2,5.74,51.42,5.74,15.95,0,31.89-1.65,47.65-4.93-.69-.56-1.4-1.09-2.13-1.6-31.35,6.27-63.42,6.01-94.71-.77Z"/><path class="cls-2" d="m128.14,266.33c.23-.74.45-1.49.64-2.25-42.09,11.5-85.96,11.01-127.9-1.47.16.76.35,1.5.55,2.25,21.66,6.33,43.81,9.5,65.97,9.5,20.38,0,40.75-2.69,60.74-8.04Z"/><path class="cls-2" d="m115.93,284.71c.99-.84,1.94-1.73,2.84-2.67-35.99,8.16-73.05,7.67-108.9-1.49.83.95,1.7,1.85,2.61,2.72,18.12,4.37,36.52,6.55,54.93,6.55,16.24,0,32.48-1.71,48.53-5.11Z"/></g><line class="cls-7" x1="47.48" y1="301.67" x2="47.48" y2="321.21"/><line class="cls-8" x1="65.41" y1="321.68" x2="65.41" y2="369.89"/><line class="cls-7" x1="56.5" y1="301.67" x2="56.5" y2="321.21"/><line class="cls-7" x1="65.52" y1="301.67" x2="65.52" y2="321.21"/><line class="cls-7" x1="74.54" y1="301.67" x2="74.54" y2="321.21"/><line class="cls-7" x1="83.55" y1="301.67" x2="83.55" y2="321.21"/><line class="cls-5" x1="62.59" y1="375.77" x2="62.59" y2="392.15"/><line class="cls-5" x1="65.41" y1="375.77" x2="65.41" y2="392.15"/><line class="cls-5" x1="68.22" y1="375.77" x2="68.22" y2="392.15"/><circle class="cls-3" cx="65.41" cy="372.1" r="5"/></g></g></svg>