<?xml version="1.0" encoding="UTF-8"?><svg id="_レイヤー_2" xmlns="http://www.w3.org/2000/svg" width="1161" height="504" viewBox="0 0 1161 504"><defs><style>.cls-1{fill:#fff;}.cls-2{fill:#b53935;}.cls-3{stroke-linecap:round;stroke-width:5px;}.cls-3,.cls-4{fill:none;stroke:#fff;}.cls-4{stroke-miterlimit:10;stroke-width:4px;}</style></defs><g id="_背景"><rect class="cls-2" width="1161" height="504"/></g><g id="_線"><rect class="cls-4" x="27" y="27" width="72" height="72"/><rect class="cls-4" x="45" y="45" width="36" height="36"/><polygon class="cls-4" points="1080 261 1080 423 846 423 315 423 81 423 81 261 81 243 81 81 315 81 846 81 1080 81 1080 243 1080 261"/><polyline class="cls-4" points="45 81 45 243 45 261 45 423"/><polyline class="cls-4" points="81 45 315 45 846 45 1080 45"/><polyline class="cls-4" points="63 126 72 126 72 117 54 117 54 144 72 144 72 162 54 162 54 189 72 189 72 180 63 180 63 207 72 207 72 198 54 198"/><rect class="cls-4" x="117" y="36" width="36" height="36"/><rect class="cls-4" x="144" y="54" width="36" height="36"/><rect class="cls-4" x="1062" y="27" width="72" height="72"/><rect class="cls-4" x="1080" y="45" width="36" height="36"/><polyline class="cls-4" points="1116 81 1116 243 1116 261 1116 423"/><polyline class="cls-4" points="1098 126 1089 126 1089 117 1107 117 1107 144 1089 144 1089 162 1107 162 1107 189 1089 189 1089 180 1098 180 1098 207 1089 207 1089 198 1107 198"/><rect class="cls-4" x="1008" y="36" width="36" height="36"/><rect class="cls-4" x="981" y="54" width="36" height="36"/><rect class="cls-4" x="27" y="405" width="72" height="72"/><rect class="cls-4" x="45" y="423" width="36" height="36"/><polyline class="cls-4" points="81 459 315 459 846 459 1080 459"/><polyline class="cls-4" points="63 378 72 378 72 387 54 387 54 360 72 360 72 342 54 342 54 315 72 315 72 324 63 324 63 297 72 297 72 306 54 306"/><rect class="cls-4" x="117" y="432" width="36" height="36"/><rect class="cls-4" x="144" y="414" width="36" height="36"/><rect class="cls-4" x="1062" y="405" width="72" height="72"/><rect class="cls-4" x="1080" y="423" width="36" height="36"/><polyline class="cls-4" points="1098 378 1089 378 1089 387 1107 387 1107 360 1089 360 1089 342 1107 342 1107 315 1089 315 1089 324 1098 324 1098 297 1089 297 1089 306 1107 306"/><rect class="cls-4" x="1008" y="432" width="36" height="36"/><rect class="cls-4" x="981" y="414" width="36" height="36"/></g><g id="_ロゴタイポ"><g><g><path class="cls-1" d="M195.49,242.48c.73-.55,1.64-.55,2.55-.18,.73,.36,1.46,.91,1.82,1.46,1.09,.91,1.82,2.18,2.37,3.64,1.27,6.37,2.55,12.74,4.19,18.93,1.27,5.28,2.73,10.37,4.37,15.65,1.64,5.1,3.82,9.83,6.73,14.2,1.46,2.18,2.37,4.55,2.91,6.92,0,1.09-.36,2-1.09,2.73-1.09,.36-2.37,.36-3.46-.18-6.37-4.37-11.83-9.83-16.02-16.38-4.19-6.55-6.55-13.65-7.1-21.66-.36-3.28-.36-6.92-.36-10.92,.18-3.82,.73-7.83,2-12.01,0-.73,.36-1.46,1.09-2.18Zm112.3-33.31c4.73,4,9.28,8.19,13.83,12.56,1.82,2.18,3.09,4.55,3.82,7.1,1.27,3.28,1.09,6.55-.73,9.46-3.46,7.83-6.92,15.83-10.37,23.84-4.37,8.37-9.46,16.38-15.11,24.21-1.27,1.27-2.73,2.55-4,3.64-1.09,.73-1.09,1.64-.18,2.73,.91,.91,1.46,2,2,3.28,1.09,3.82-.36,6.01-4.19,6.19-6.19,.36-12.56,1.09-18.75,2.18-6.37,1.09-12.74,2-18.93,2.73-2.37,.18-4.55,.55-6.73,1.46-2,.91-4.37,1.82-6.73,2.55-1.46,.73-2.91,1.09-4.55,1.09-1.64,.18-3.09-.18-4.55-1.27s-2.18-2.55-2.18-4.55c0-1.82,.73-3.28,2-4.37,5.82-5.28,11.47-10.56,16.93-15.83,5.46-5.46,10.56-11.1,15.29-17.11,.36-.18,.55-.55,.73-.91,.55-.55,1.09-1.27,1.46-2.18,.55-.91,.36-1.64-.36-2.18-.91-.55-1.82-.91-2.73-1.09-6.55-2.73-10.01-7.64-10.01-14.56s.36-13.29,.91-19.84c0-1.27,.18-2.55,.55-3.82,0-1.27,.36-2.55,1.09-3.64,.73-.18,1.27-.18,1.64,0,.55,.18,.91,.36,1.46,.36,2,.91,3.82,2.37,5.46,4.19,1.64,1.82,2.37,4,2.55,6.19,.18,2.37,.18,4.73-.18,6.92-.55,4-.91,8.01-1.09,12.01,0,1.64,.73,2.37,2.37,1.82,1.82-.73,3.82-1.46,5.82-2.18,.55-.36,1.27-.36,2-.18,2.73,1.64,5.1,3.28,7.46,5.1,.55,.73,1.09,1.27,1.64,1.82,.55,.73,.91,1.46,.91,2.18,.18,.91,0,1.64-.73,2.18-.73,.55-1.27,1.09-1.82,1.46-1.64,1.09-3.28,2-5.1,3.09-.91,.73-2.18,1.27-3.46,2-10.37,10.01-20.93,20.2-31.31,30.58-.36,.55-.73,1.27-1.27,1.82,.91-.18,1.64-.36,2.18-.36,10.92-2.91,21.84-6.01,32.94-9.1,.55-.18,1.09-.36,1.46-.91,6.19-7.64,11.83-15.47,16.93-24.02,4.91-8.37,9.1-17.11,12.38-26.39,1.64-4,2.91-7.83,3.82-11.83,0-1.27-.55-2.37-1.64-3.09-2.73-2.37-5.28-4.73-8.01-7.1-2.55-2.37-5.64-4-9.1-4.91-3.28-.91-6.73-1.46-10.19-1.82-4.91-.36-9.65,.18-14.01,1.64-4.55,1.64-8.92,3.46-13.29,5.46-5.1,2-9.83,4.91-14.2,8.74-4.19,4-8.01,8.19-11.28,12.92-.36,.36-.73,.73-.91,1.46,.36-.18,1.09-.36,1.82-.36,1.82-.55,3.64-.36,5.46,.36,1.82,.55,3.28,1.82,4.55,3.46,1.27,1.46,1.82,3.28,1.64,5.28-.55,4-1.09,7.83-2.18,11.47-.91,3.82-2.37,7.28-4.55,10.56-.91,1.64-1.64,3.46-2.37,5.46-1.82,3.82-4.55,6.92-8.37,9.28l-2.37,2c-.73,.36-1.27,.73-1.82,1.09,.18-.55,.36-1.27,.73-2.18,3.82-7.1,6.55-14.92,8.01-23.11,.73-4.73,1.27-9.65,1.64-14.56,0-1.27-.73-2-1.82-2-.91,0-2-.18-3.09-.55-1.09-.36-1.46-1.09-1.09-2.18,.55-1.09,1.09-2,1.64-2.91,.36,0,.73-.18,.91-.55,2.18-6.37,5.64-12.38,10.37-17.65,4.73-5.28,10.19-9.46,16.38-12.56,6.01-3.28,12.56-5.64,19.11-7.28,4.37-.91,8.74-1.82,13.29-2.18,7.83,0,14.38,2.37,20.2,7.46Z"/><path class="cls-3" d="M355.15,225.51c-37.69-37.69-95.82-95.82-95.82-95.82l-127.28,127.28,127.28,127.28s58.1-58.1,95.8-95.8"/></g><g><path class="cls-3" d="M538.56,308.66l22.74-22.74"/><path class="cls-1" d="M420.59,182.59c-.73-1.09-1.09-2.37-.91-3.46,1.46-2.37,3.64-2.91,6.19-2,2.37,1.82,4.73,3.64,7.1,5.46,2.55,2,3.09,4.37,1.27,6.92-1.09,2.55-1.82,5.1-2,7.64-.36,2.73-.36,5.46,0,8.19,.18,1.09,.73,2,1.64,2.73l4.91,3.82c1.46,1.46,1.27,2.73-.36,3.82-2.55,.91-4.37,2.55-5.28,4.91-1.09,2.18-1.46,4.73-1.46,7.1-.36,11.47-.91,22.75-1.82,34.22-.36,4.55-.18,8.92,.18,13.47,0,.73,.36,1.09,.73,.91,.55-.18,.91-.36,.91-.91,7.64-5.64,15.29-11.1,22.75-16.56,.91-.55,1.82-1.09,2.73-1.64-.55,.73-1.09,1.46-1.64,2.18-4.55,4-8.74,8.01-12.92,12.19-2.73,2.73-5.1,5.46-7.1,8.37-.36,.36-.55,.55-.73,.91-2,1.46-3.46,3.28-4,5.64-.73,2.37-.91,4.73-.91,7.1,.18,10.37,.36,20.75,.73,30.94,0,2-.18,3.82-.91,5.64-.73,1.82-1.46,3.46-2.37,5.1-.91,.55-1.82,.91-2.91,.91-2.73-1.27-4.73-3.28-5.64-6.01-.91-2.91-.73-5.64,.73-8.19,.73-1.27,1.27-2.73,1.27-4.37v-17.65c0-.55-.18-.91-.55-1.27-.36,.18-.55,.36-.73,.55-4.91,4.19-10.19,8.01-15.47,11.83-3.64,2-7.28,3.64-11.47,4.73-1.64,.36-2.91,.18-4.19-1.09-1.09-1.09-1.82-2.37-2.37-4-.73-2-.18-3.82,1.64-5.46,.91-.73,1.64-1.46,2.18-2.55,7.1-11.83,13.1-24.21,18.02-37.31,3.64-8.55,7.1-17.29,10.74-26.03,.18-.73,.36-1.46,.55-2v-1.09c-.36,.18-.73,.36-.91,.55-1.82,2.55-4,4.73-6.19,6.92-6.01,5.1-11.83,9.83-17.84,14.56-.91,.73-2,.73-2.91,0-2.18-1.64-4.19-3.46-5.82-5.64-.36-.36-.73-.73-.91-1.27-.36-.91-.55-2-.55-2.91,0-1.09,.36-2,.91-2.91,.91-.18,1.82-.18,2.55,0,1.09,.18,2,0,3.09-.18,9.83-8.01,19.48-16.02,29.12-24.21,1.09-1.09,1.64-2.37,1.64-3.82,0-5.28,.18-10.56,.36-15.83,.18-5.28,.18-10.56,0-15.83,0-1.09-.36-2.18-1.09-3.09Zm.73,83.91c-.18-.55-.18-1.27-.18-2-.55,.55-.91,1.09-1.27,1.46-2.37,4.37-4.73,8.74-7.28,12.92s-5.46,8.19-8.55,11.83c-.55,.18-.91,.73-1.09,1.46-.18,.36-.18,.91,0,1.46,.36,.36,.91,.36,1.46,.18,2.91-1.46,5.82-2.91,8.74-4.55,3.09-1.27,5.46-3.28,7.1-6.01,1.82-2.91,2-6.01,1.09-9.28v-7.46Zm97.19,38.4c1.09-.18,2.18-.18,3.09,.18,4.19,1.27,8.01,3.09,11.47,5.46,3.28,2.37,6.19,5.1,8.74,8.01,.91,1.09,1.27,2.18,1.09,3.28-.36,1.27-1.09,2.18-2.37,2.73-2,.18-3.64-.18-5.1-1.09-1.64-.73-3.09-1.46-4.55-2.18-1.46-.36-2.73-.91-4-1.64-3.46-2-7.1-3.28-10.92-3.82-4-.73-7.83-.73-11.65-.36-7.46,.18-14.92,.73-22.21,1.82-2.73,.36-5.28,1.09-7.64,2-2.55,.91-5.1,1.82-7.46,2.73-1.82,.73-3.28,1.64-4.91,2.37-2.55,.55-5.1,1.82-7.46,3.28-1.09,.55-2.37,.91-3.46,.91-1.27-.18-2.37-.18-3.64-.36-2.18-.36-4.19-.91-6.19-2-.91-.55-1.64-1.27-2.18-2.37,.73-.18,1.46-.36,2.37-.55,.73-.36,1.46-.73,2.37-.91,8.74-4.37,16.56-10.19,23.12-17.65,.36-.36,.91-1.09,1.27-2,.36-.73,.36-1.46-.36-2-.73-.55-1.27-1.09-2-1.46-3.09-2-5.82-4.19-8.74-6.19-1.09-1.46-1.27-3.09-.36-4.73,2.18-3.64,4.37-7.1,6.92-10.37,1.46-1.64,3.09-2.91,4.91-4.19,5.1-5.28,11.1-9.28,18.02-11.83,.36-.36,.55-.91,.73-1.46l1.09-19.66c-.18-.55-.55-.91-1.09-1.09-1.27,.36-2.55,.91-4,1.64-5.1,2.73-10.56,4.73-16.2,6.01-1.09,.18-2.18,0-3.28-.55-2.55-2-4.91-4.37-6.73-6.92-.91-2-.91-4,0-5.82,.91-1.82,2.37-3.09,4.37-3.82,.73,.18,1.09,.55,1.09,1.09,0,.73,0,1.64,.18,2.55,.18,1.09,.91,1.27,1.82,1.09,1.09-.36,1.82-.73,2.55-1.09,14.92-6.19,29.85-12.56,44.77-19.11,.36-.18,.73-.55,.91-1.09,1.64-1.46,3.28-1.64,5.1-.55,2.55,2,4.91,4,7.46,6.01,1.09,1.27,1.46,2.55,.91,4-.36,1.64-1.27,2.55-2.91,3.09-6.55,1.46-12.19,4.91-16.56,10.19,0,.55-.18,.73-.55,.91-1.64,.73-2.91,1.82-3.64,3.64-.73,1.64-1.27,3.28-1.46,4.91-.55,1.46-.55,3.09-.36,4.55,.18,1.46,.55,3.09,.91,4.73,1.27,.36,2.37,.36,3.64,.18,2,.18,3.82,.91,5.28,2,1.64,1.09,3.09,2.37,4.37,3.64,1.27,1.46,2.37,3.09,2.91,4.91,0,1.46-.73,2.37-2,2.91-1.46,.55-2.55,1.46-3.46,2.91-1.82,1.82-3.46,3.82-5.1,6.01-2.37,3.82-4.91,7.64-7.83,11.47-1.46,2-2,4-2,6.19,0,2.37,0,4.55,.36,6.73,.18,.55,.73,.91,1.27,.91l8.19,1.09c2.73,.55,5.28,.91,8.01,1.09,.91,0,2-.18,3.09-.36Zm-31.49-38.4c.18-1.82-.55-2.37-2.18-1.64-6.01,2-11.1,5.28-15.11,10.19-1.46,1.82-2.73,4-3.82,6.19v.36c.73,1.09,.91,2.37,.55,3.64-.73,1.46-.18,2.18,1.27,2.18,.36,0,.55,.18,.55,.18,.55,1.46,1.46,2.37,2.91,2.73,1.27,.36,2.73,.55,4.19,.55,1.82,.18,3.28-.36,4.55-1.82,4.19-5.28,6.55-11.28,7.1-17.84-.18-1.82-.18-3.28,0-4.73Zm25.12-74.08c-3.82,1.46-7.46,2.73-11.28,3.64-.73,.36-1.46,.55-2.18,.36-3.64-.91-6.92,.18-9.65,3.09-1.46,1.27-2.91,2.37-4.55,3.64-.18,0-.36,.18-.55,.36,0-.18,.18-.55,.18-.73,1.82-2.37,3.64-4.73,5.64-6.92,.91-1.09,.73-2-.55-2.55-2.37-.91-4.55-2-6.55-3.28s-3.82-2.91-5.28-4.91c-.18-.36-.36-.73-.36-.91-.36-1.46-.73-2.91-1.09-4.19,1.46-.36,2.73-.36,4-.36,6.55,1.27,13.29,1.09,19.84-.55,.91-.18,1.64-.36,2.18-.73,.73-.36,1.46-.55,2.18-.36,2.73,1.46,5.28,3.28,7.46,5.46,1.64,1.82,2.73,3.82,3.46,6.01-.73,1.27-1.82,2.18-2.91,2.91Z"/><path class="cls-3" d="M400.7,320.97l62.78,62.78,60.09-60.09"/><path class="cls-3" d="M560.8,226.51c-37.63-37.63-97.32-97.32-97.32-97.32l-127.28,127.28s21.16,21.16,46.23,46.23"/></g><g><path class="cls-3" d="M744.48,308.63c8.27-8.27,16.27-16.27,23.43-23.43"/><path class="cls-1" d="M702.42,241.02c-.91,.18-1.82,.73-2.55,1.46-1.82,1.46-4,2.37-6.19,2.55-2.37,.18-4.73,0-6.92-.55-1.82,0-3.46,0-5.1-.18-.73-.36-1.09-.73-1.46-1.46,.73-.73,1.27-1.46,2-2,.55-.73,1.27-1.46,2.18-1.82,3.82-.73,7.1-2.37,10.19-4.73,3.28-2.37,5.64-5.28,7.28-8.55,1.64-3.46,2.73-7.1,3.46-10.92,.36-1.46,.55-2.91,.55-4.37,.18-1.82-.36-2.91-1.82-3.82-1.09-.73-1.09-1.82,0-3.09,1.82-2.37,4.19-2.91,7.1-1.82,2.18,.73,4.37,1.64,6.37,2.73,2.18,1.09,3.82,2.73,4.91,4.91,2,3.46,1.82,7.1-.55,10.56,0,.36-.18,.55-.18,.91,.36,0,.73-.18,.91-.55,.36-.91,1.09-1.64,2-2.18,.73-.55,1.64-.55,2.73-.18,.91,.36,1.82,.91,2.55,1.46l2.91,1.46c2.55,1.64,2.55,3.28,.36,5.28-3.64,2-7.1,4.19-10.74,6.19-6.37,3.28-8.92,8.37-7.46,15.29,.36,.36,.73,.55,1.27,.55,.73,0,1.46-.18,2-.55,2.37-.73,4.55-.36,6.55,.91,1.82,1.46,2.91,3.28,3.09,6.01-.18,1.46-.91,2.73-2.18,3.46-1.09,.91-2.37,1.64-3.82,2.18-2,1.64-4.19,3.09-6.55,4.55-.36,.36-.73,.91-.73,1.64,0,3.82-.18,7.64-.18,11.47-.18,1.46,.36,1.82,1.64,.91,1.09-.73,2.37-1.46,3.64-2,3.46-1.27,6.19-.55,8.55,2.55,.18,.36,.55,.73,.73,.91,1.46,1.46,1.27,2.73-.18,3.64l-8.55,3.46-3.28,1.09c-2.37,1.09-3.46,2.91-3.46,5.46,.36,1.82,.18,3.64-.18,5.64-.36,1.82,0,3.64,1.27,5.28,.36,.36,.91,.55,1.46,.55,3.82,.18,7.64,.55,11.47,.91,.73,0,1.64-.18,2.55-.36,.91-.18,1.64-.18,2.37,.36,2.18,1.64,4.55,3.28,6.92,4.91s4.37,3.64,5.64,6.19c.73,1.64,.73,3.28,0,4.91-.55,.36-1.27,.73-2,.73-.73,.18-1.46,0-2.18,0-10.01-3.46-20.2-5.46-30.76-5.82-6.92-.18-13.65,1.27-19.66,4.55l-5.82,2.91c-2.37,1.64-4.55,3.64-6.92,5.82-.73,1.09-1.82,1.27-2.91,.73-3.82-2-6.55-5.1-7.83-9.1-.36-1.46-1.09-2.73-1.82-3.82-.91-1.64-.55-2.91,1.46-3.28,.36-.55,.55-.91,.91-1.46-.36-.73-.36-1.46,0-2.18,.91-5.46,1.46-10.92,1.27-16.38-.18-5.46-.55-10.92-.91-16.38-.73-5.82-1.46-11.65-2.37-17.47-.18-1.82-1.09-3.28-2.55-4.37-1.46-1.09-3.09-1.46-4.91-.91-.91,.36-1.46,1.09-1.82,2-.36,1.09-.73,2-.91,2.91v2c-2.37,3.09-4.73,6.37-6.92,9.46l-7.1,10.01c-2.91,4-5.82,8.01-8.74,12.19-2.18,2.37-3.09,5.28-2.73,8.37,1.09,9.46,2.18,19.11,2.91,28.76,.18,2-.55,3.46-2.55,4-1.09,.36-2.18,.18-3.09-.55-2.37-3.09-5.28-5.1-8.74-6.19-3.64-1.09-7.1-1.64-10.92-1.64-1.46,0-2.91-.55-4.19-1.64-1.27-.91-1.82-2.37-1.64-4,.73-2.18,1.82-4.37,3.09-6.37,5.28-7.1,10.56-14.01,16.02-20.75,.73-1.09,1.27-2.37,1.46-3.64-.18-12.74-.36-25.3-.55-37.68-.18-.73-.18-1.46-.18-2-.55,.55-1.09,.73-1.82,.91-2.91,2.91-6.01,5.64-9.28,8.01-4.37,3.28-8.92,3.64-13.65,1.09-3.82-2.18-4-4.55-.55-7.1,6.19-5.1,12.19-10.19,18.38-15.47,6.37-4.55,9.46-10.92,9.46-18.75,.18-10.19,.91-20.57,2-30.76,.18-3.09,.91-6.01,2-8.74,.18-.55,.55-.91,1.09-1.27,.36-.18,.91-.36,1.09-.36,0-1.27,.18-1.82,.91-1.82s1.46,.18,2,.73c2.18,.91,4.37,2.18,6.19,3.46,1.27,1.09,1.82,2.37,1.64,4-.18,3.28-.91,6.55-2.18,9.65-1.64,5.1-2.37,10.56-2,16.02-.36,1.64-.55,3.46-.55,5.1,.18,1.27,.73,2.55,1.46,3.64,1.27-.18,2.55-.73,3.82-1.46,.91-1.46,1.82-1.27,2.55,.36,.73,.91,1.27,2.18,1.64,3.46,.36,1.09,.18,2.37-.36,3.46-.73,1.09-1.64,1.82-2.55,2.55-2.91,2.73-4.92,5.64-6.37,9.1-1.27,3.46-2.18,7.1-2.73,10.74-1.46,10.01-3.09,20.02-4.73,30.21v.55c0,1.64,.18,3.28,.18,5.1l3.09-3.28c5.64-5.82,10.92-11.65,16.2-17.84,.36-.36,.73-.55,.91-.91h-1.09l-2.55,.36c-.55-1.27-.91-2.73-.73-4.19,3.28-8.55,7.1-16.93,11.47-25.12,4.19-8.37,9.1-16.2,15.11-23.3,4.91-6.01,9.65-11.83,14.56-17.47,.73-.73,1.09-1.46,1.09-2.37-.18-2.91,1.09-4.55,4-4.91,1.46-.55,2.73-1.09,4.19-1.64h1.09c2.18,1.27,4.37,2.91,6.37,4.73,2,1.64,3.46,3.82,4.19,6.55,1.09,2.37,.18,4.19-2.37,4.91-1.27,.55-2.55,1.27-3.64,2.18-4.19,4.19-8.19,8.37-12.38,12.74-4,4.19-7.83,8.92-11.28,13.83-4.37,6.19-9.1,12.38-13.65,18.38-.73,1.09-.55,1.64,.73,1.82,5.46,1.64,9.1,5.28,11.28,10.37,.73,2.73,1.09,5.64,.73,8.37l-.36,22.93v22.39c-.18,1.64,.36,2,1.46,1.27,7.1-3.28,14.38-5.64,21.84-6.92,.73,0,1.09-.18,1.46-.55,.55-2.18,1.27-4.37,2-6.37,.18-.91,.18-1.64,.18-2.55-.73,0-1.46,.18-2.18,.18-3.28,1.27-6.55,2.73-9.65,4.37-1.64,.91-3.09,.55-4.19-.91-1.27-2-2.37-4.19-3.46-6.19,0-1.09,.36-2.18,1.09-3.09l17.29-19.11c.55-.36,.91-.73,1.09-1.46,.73-2,0-2.73-2-2.18-2.18,.36-4.19,.18-6.37-.55-2-.73-4-1.46-6.01-2.55-1.27-.91-2.18-2.18-2.55-3.64,.73-1.27,1.64-2,2.91-2.37,4-1.46,8.01-2.73,12.01-3.82,2-.73,2.73-1.82,2.73-3.82-.18-1.46-.18-4.73,.18-10.01,0-1.27-.36-1.46-1.46-.73Zm-82.27,81.9c.73,0,1.64,0,2.37-.36,.73-.18,1.27-.73,1.46-1.27-.36-4-.73-8.01-1.46-12.01-.18-.36-.55-.36-.73-.36-2.91,3.46-5.82,7.1-8.74,10.56-.73,1.27-.55,2.18,.91,2.55,2,.18,4,.55,6.19,1.09v-.18Zm82.63-43.32c-.18-.73-.18-1.46-.36-2l-1.46,1.09c-2.37,2.91-4.73,5.82-6.92,8.74,0,.36,0,.55-.18,.73h.91c1.46-1.09,3.28-1.82,4.91-2.18,2.73-.55,3.64-2,3.09-4.37,.18-.73,.18-1.27,0-2Z"/><path class="cls-3" d="M621.06,334.94l48.55,48.55,58.93-58.93"/><path class="cls-3" d="M766.56,225.89c-37.65-37.65-96.95-96.95-96.95-96.95l-127.28,127.28s27.51,27.51,56.95,56.95"/></g><g><path class="cls-1" d="M890.49,182.78c.73,1.64,1.27,3.28,1.46,5.28,.18,.55,0,.91-.55,1.27-1.82,1.27-1.64,2.37,.18,3.64,7.46,8.19,14.74,16.38,21.84,24.94,6.37,7.46,13.65,13.65,22.21,18.56,7.83,4.91,15.11,10.37,22.21,16.2,1.46,1.46,2.55,3.09,3.09,5.1-.36,1.27-1.09,2-2.18,2.55-4.91,.18-9.65-.73-14.38-2.73-8.92-3.82-17.11-9.1-24.57-15.47-7.28-6.55-13.83-13.65-19.66-21.48-5.64-7.83-12.19-14.92-19.66-21.11-1.82-1.46-3.28-1.27-4.55,.55-5.46,6.01-10.19,12.38-14.38,19.11-4.37,6.73-8.55,13.47-12.92,20.2-3.82,5.46-7.46,11.1-11.1,16.93-4.73,8.19-10.92,15.65-18.02,22.2-3.82,3.28-7.46,6.37-11.29,9.1-1.09,.73-2.55,1.27-3.82,1.64-3.64,1.09-7.28,2.18-10.92,3.09h-.91c.18-.36,.36-.73,.55-.91,2.18-2,4.55-3.82,6.92-5.46,9.1-6.92,16.74-15.29,22.57-24.94,10.92-17.84,22.02-35.67,33.31-53.33,6.19-8.74,12.38-17.47,18.38-26.21,1.46-1.27,1.46-2.55,0-3.82-1.09-1.46-.73-2.37,1.27-2.73,1.46-.36,2.91-.73,4.73-1.09h2.37c2.73,2.91,5.46,5.82,7.83,8.92Zm-34.95,118.85c-1.09-1.09-2.37-2.18-3.28-3.46-.36-.36-.73-.73-1.09-.91,.36,.36,.55,.91,.55,1.46,.73,.73,1.27,1.46,1.82,2.37,.55,.91,.55,1.82,0,2.91-.36,1.64-1.27,2.18-2.91,1.64-5.28-.91-9.65-3.64-12.74-8.01-2.18-3.82-4.19-8.01-5.64-12.19-.18-1.64,.36-3.09,1.64-4.19,14.56-11.65,27.48-25.12,38.77-40.04,.73-1.09,.55-1.82-.91-1.82-4.37-1.64-8.74-3.28-13.1-5.1-2-1.27-2-2.55,0-3.64,1.64-.91,3.46-1.64,5.46-2,7.1-.18,13.65-2.37,19.47-6.55,.91-.55,1.64-.55,2.55-.18,3.28,2.18,6.55,4.55,9.83,7.1,.73,1.27,.91,2.55,.55,4.37-.55,.73-1.64,1.27-2.73,1.64-2.91,1.64-6.01,3.09-9.1,4.73-2,.91-4,1.82-5.82,2.73-1.82,.55-3.28,1.46-4.55,2.73-6.01,5.64-12.19,11.47-18.02,17.65-6.01,6.37-12.01,12.92-17.84,19.66-.36,.55-.36,1.27,0,1.82,3.64,3.46,7.28,7.1,10.74,10.37,.36,0,.73-.18,1.09-.36,.55-2,1.46-4,2.37-6.01,2.91-4.91,5.64-9.83,8.37-14.74,.18-.36,.36-.91,.55-1.46h-1.27c-3.28-.18-6.19,.73-8.74,2.91-.55,.18-1.09,.18-1.46,0,0-.55,0-.91,.18-1.46,3.09-5.82,8.01-8.92,14.38-9.46,1.64,0,3.28,.55,4.73,1.46,2.18,1.27,4.37,2.73,6.19,4.55,3.28,3.82,2.91,7.28-1.27,10.56-3.09,3.09-6.01,6.19-8.55,9.46-.36,.18-.36,.36-.36,.73h.73c2-.91,3.82-1.64,5.46-2.73,.36,0,.55-.18,.91-.55,0,.36-.18,.73-.18,.91-1.09,1.82-.73,3.28,.91,4.37,2,1.82,1.82,3.46-.73,4.55l-3.28,1.82c-2.73,2.18-5.82,3.09-9.28,3.09-1.64,.36-3.09,.18-4.37-.73Zm24.93-16.2c.18-7.1,.18-14.2-.18-21.29-.18-3.28-.55-6.55-.91-9.65-.36-1.09-.91-2.18-1.82-3.09-1.09-1.09-.91-2.18,.55-2.91,.73-.55,1.64-.91,2.55-1.46,.91-.36,1.82-.55,2.73-.18,1.82,.55,3.46,1.27,5.1,2.18,1.64,.91,2.55,2.18,3.09,4,.18,1.46,0,2.91-.55,4.19,0,.55,0,.91-.36,1.09,.36,0,.55,0,.91-.18l13.47-9.1c4.19-2,8.19-1.82,12.01,.36,1.27,1.09,2.55,2,4,2.73,4.37,3.64,6.01,8.37,5.28,13.83-.36,1.46-.36,3.09-.18,4.73,.18,6.55-.55,13.1-2.37,19.47-1.64,4.37-4,8.01-7.46,11.1-1.27,.91-2.73,1.27-4.37,.91-1.64-.18-3.09-.91-4.19-2l-4.92-4.73c-3.46-2.73-7.1-5.46-10.92-8.19-1.46-.91-2.18-.55-2.18,1.09-.18,6.73-.55,13.47-.91,20.02-1.09,7.1-2.37,14.38-3.64,21.48-.55,1.82-1.27,3.46-1.82,4.91-.36,.55-.55,1.09-.91,1.64-.55-.55-1.09-1.09-1.46-1.64-.55-4.55-.91-9.28-1.27-13.83v-10.37h-.55c.55-8.37,.91-16.74,1.27-25.12Zm25.84,.91c.91-.18,1.82-.55,2.37-1.27,1.46-2.55,2.37-5.1,2.73-7.64,.55-3.28,.91-6.55,1.09-9.83,.36-2.91,.36-5.82,.36-8.74,0-.91-.55-1.64-1.46-2-2.18-.18-4,0-5.82,.73-2.73,.91-5.28,2.18-7.83,3.82-2.18,1.27-4.37,2.73-6.73,4.37-.36,.73-.73,1.27-.73,2.18v14.74c.18,.91,.55,1.27,1.09,1.46,4.19,.73,8.19,1.82,12.19,2.73,.73-.18,1.64-.36,2.73-.55Z"/><rect class="cls-3" x="786.75" y="165.12" width="180" height="180" transform="translate(76.39 694.68) rotate(-45)"/></g></g></g></svg>