<?xml version="1.0" encoding="UTF-8"?><svg id="_レイヤー_2" xmlns="http://www.w3.org/2000/svg" width="182.74" height="112.55" viewBox="0 0 182.74 112.55"><defs><style>.cls-1{fill:#b53935;}</style></defs><g id="_蓮2_隙間"><g><path class="cls-1" d="m127.54,106.6c17.5-6.64,19.33-24.55,22.12-40.56l-1.48,2.57c10.99,1.08,21.98,2.17,32.97,3.25l-.41-6.87c-11.09,8.1-22.18,16.2-33.28,24.3-1.77,1.29-.84,7.96.82,6.75,11.09-8.1,22.18-16.2,33.28-24.3,1.39-1.01,1.92-6.65-.41-6.87-10.99-1.08-21.98-2.17-32.97-3.25-1.05-.1-1.38,1.94-1.48,2.57-.88,5.04-1.61,10.13-2.64,15.15-1.97,9.58-8.2,17.06-17.33,20.52-1.9.72-1.46,7.62.82,6.75h0Z"/><path class="cls-1" d="m127.32,41.2c1.57,8.35,3.15,16.7,4.72,25.05.71,3.78,1.66,7.6,2.05,11.43.91,9-3.03,17.06-10.15,22.44-1.22.93-1.93,7.03.41,6.87,12.43-.83,20.39-13.98,22.54-25.01,1.1-5.62,1.97-11.3,2.95-16.94,2.44-13.98,4.87-27.95,7.31-41.93.14-.82-.07-5.3-1.89-4.31-7.2,3.92-14.39,7.85-21.59,11.77-1.88,1.02-1.17,7.83.82,6.75,7.2-3.92,14.39-7.85,21.59-11.77l-1.89-4.31c-2.31,13.25-4.62,26.5-6.93,39.75-.84,4.82-1.68,9.64-2.52,14.46-1.86,10.69-7.91,23.69-20.38,24.53l.41,6.87c12.48-9.44,13.73-24.01,11.03-38.33-1.93-10.29-3.87-20.58-5.81-30.87-.24-1.29-1.02-2.05-2.11-1.26-1.14.83-.76,3.68-.55,4.79h0Z"/><path class="cls-1" d="m80.74,24.17l-4.77,9.88c-.67,1.39-.77,4.24.31,5.5,4.86,5.63,9.72,11.25,14.58,16.88,1.85,2.14,2.87-4.52,1.55-6.04-4.86-5.63-9.72-11.25-14.58-16.88l.31,5.5,4.77-9.88c.85-1.77-.55-8.33-2.18-4.95h0Z"/><path class="cls-1" d="m97.18,51.54c3.93-4.55,7.87-9.1,11.8-13.64,1.08-1.25.98-4.11.31-5.5-5.06-10.48-10.12-20.97-15.18-31.45-.59-1.23-1.56-1.28-2.18,0-2.65,5.49-5.29,10.98-7.94,16.46-.85,1.77.55,8.33,2.18,4.95,2.65-5.49,5.29-10.98,7.94-16.46h-2.18c5.06,10.48,10.12,20.97,15.18,31.45l.31-5.5c-3.93,4.55-7.87,9.1-11.8,13.64-1.3,1.5-.31,8.2,1.55,6.04h0Z"/><path class="cls-1" d="m97.55,96.28c-1.9,2.12-3.96,3.83-6.36,5.34-1.6,1.01-1.68,5.78,0,6.75,11.76,6.81,26.99,5.25,36.85-4.27,8.39-8.11,10.48-20.28,8.53-31.41-2.19-12.46-4.68-24.87-7.02-37.3-1.31-6.96-2.62-13.92-3.93-20.88-.19-1.01-1.12-2.4-2.11-1.26-8.92,10.32-17.84,20.64-26.77,30.95-1.3,1.5-.31,8.2,1.55,6.04,8.92-10.32,17.84-20.64,26.77-30.95l-2.11-1.26c2.74,14.59,5.49,29.17,8.23,43.76,1.45,7.71,4.2,16.07,2.47,23.87-4.03,18.19-26.64,24.64-41.65,15.95v6.75c2.71-1.7,4.97-3.67,7.09-6.05,1.32-1.48.36-8.19-1.55-6.04h0Z"/><path class="cls-1" d="m104.57,92.97c2.98-8.37,3.31-17.13.1-25.51-2.28-5.95-6.53-10.47-10.62-15.2-1.85-2.14-2.87,4.52-1.55,6.04,7.53,8.7,14.3,17.39,9.9,29.72-.46,1.29-.93,3.75,0,4.95.68.88,1.6,1.61,2.18,0h0Z"/><path class="cls-1" d="m10.07,64.03l-8.47.84c-2.34.23-1.79,5.86-.41,6.87,8.13,5.94,16.26,11.88,24.39,17.81,9.72,7.1,19.25,15.98,31.69,17.37,2,.22,2.09-6.28.41-6.87-9.32-3.31-15.74-10.8-17.83-20.49-1.1-5.11-1.8-10.34-2.7-15.49-.11-.63-.43-2.67-1.48-2.57-6.03.6-12.06,1.19-18.09,1.79-2.26.22-2.04,7.2,0,7,6.03-.6,12.06-1.19,18.09-1.79l-1.48-2.57c2.83,16.23,4.71,34.47,22.68,40.87l.41-6.87c-12.25-1.37-22.07-10.69-31.66-17.69-7.87-5.75-15.74-11.49-23.61-17.24l-.41,6.87,8.47-.84c2.26-.22,2.04-7.2,0-7h0Z"/><path class="cls-1" d="m32.4,55.68c1.51,8.63,2.89,17.3,4.52,25.92,2.05,10.84,10.14,25.16,22.75,25.43,2.35.05,1.69-5.94.41-6.87-7.74-5.64-11.72-14.34-10.4-23.94.52-3.78,1.42-7.54,2.13-11.29,1.64-8.71,3.28-17.42,4.92-26.13.24-1.26.58-4.32-.92-5.14-9.06-4.94-18.12-9.88-27.18-14.82-1.83-1-2.04,3.49-1.89,4.31,1.39,7.98,2.78,15.96,4.18,23.93.81,4.65,3.52,1.28,2.97-1.86-1.39-7.98-2.78-15.96-4.18-23.93l-1.89,4.31c9.06,4.94,18.12,9.88,27.18,14.82l-.92-5.14c-1.75,9.32-3.51,18.64-5.26,27.96-1.27,6.75-2.91,13.45-2.33,20.37.79,9.41,5.13,17.73,12.79,23.32l.41-6.87c-11.76-.25-18.56-13.31-20.31-23.31-1.33-7.63-2.66-15.26-3.99-22.89-.81-4.65-3.52-1.28-2.97,1.86h0Z"/><path class="cls-1" d="m104.24,93.81c5.02-12.81,2.86-26.33-6.07-36.79-4.06-4.76-8.18-9.46-12.27-14.19-8.59-9.95-17.19-19.89-25.79-29.83-.97-1.12-1.91.22-2.11,1.26-2.47,13.16-4.95,26.31-7.42,39.47-3.09,16.41-8.95,35.44,4.1,49.21,11.17,11.78,30.4,12.58,42.34,1.59,1.63-1.5.54-8-.82-6.75-10.5,9.67-27.07,10.2-38.08.88-9.36-7.94-9.18-18.56-7.11-29.55,1.95-10.33,3.89-20.66,5.83-31,1.27-6.77,2.55-13.55,3.82-20.32l-2.11,1.26c7.16,8.28,14.33,16.57,21.49,24.86,3.95,4.57,7.89,9.14,11.84,13.7,7.94,9.18,15.26,18.29,10.18,31.27-.49,1.26-.92,3.77,0,4.95.71.91,1.56,1.57,2.18,0h0Z"/></g></g></svg>