<?xml version="1.0" encoding="UTF-8"?><svg id="_レイヤー_2" xmlns="http://www.w3.org/2000/svg" width="126.18" height="116.1" viewBox="0 0 126.18 116.1"><defs><style>.cls-1{fill:#b53935;}</style></defs><g id="_桃_隙間"><g><path class="cls-1" d="m118.5,104.3c-9.1,4.16-19.76,6.52-29.57,3.4-2.36-.75-2.74,6.14-.82,6.75,10.48,3.34,21.44,1.07,31.21-3.4,1.9-.87,1.33-7.73-.82-6.75h0Z"/><path class="cls-1" d="m12.37,91.89c6.28,9.57,18.39,14.38,29.59,12.6,9.31-1.48,15.53-7.15,21.91-13.53h-1.55c6.22,6.22,12.25,11.79,21.28,13.42,11.41,2.06,23.75-2.76,30.23-12.48h-1.55c4.3,4.53,8.32,9.58,11.21,15.15l.68-5.85-.38.25c-1.83,1.18-.99,7.92.82,6.75l.38-.25c1.54-.99,1.4-4.45.68-5.85-3.08-5.96-7.22-11.39-11.83-16.24-.48-.51-1.09-.69-1.55,0-6.17,9.26-17.88,13.47-28.68,11.52-8.39-1.51-13.97-6.7-19.73-12.47-.58-.58-.97-.58-1.55,0-5.93,5.93-11.69,11.2-20.36,12.57-10.59,1.68-22.06-2.53-28.04-11.65-1.45-2.22-2.65,4.37-1.55,6.04h0Z"/><path class="cls-1" d="m7.59,91.32c-2.61,3.41-5.08,6.97-7.06,10.79-.74,1.42-.85,4.84.68,5.85,8.69,5.75,20.31,9.17,30.67,7.87,13.9-1.73,24.54-12.33,31.99-23.46h-1.55c6.13,9.16,14.08,17.5,24.49,21.63,2.23.88,2.75-5.98.82-6.75-10.15-4.03-17.78-11.99-23.76-20.92-.41-.61-1.15-.61-1.55,0-7.43,11.1-18.03,21.59-32.04,22.67-9.71.75-20.15-2.41-28.25-7.78l.68,5.85c1.79-3.44,4.09-6.63,6.44-9.7,1.2-1.57.14-8.25-1.55-6.04h0Z"/><path class="cls-1" d="m117.79,53.59c-5.4-22.69-24.52-39.19-44.38-50.01-5.93-3.23-10.21-5.13-16.48-1.9-11.04,5.68-20.77,14.57-30.11,22.62-1.68,1.44-.63,8,.82,6.75,8.73-7.52,17.65-15.3,27.59-21.21,2.43-1.44,5.36-3.36,8.3-3.21,2.75.14,5.71,1.93,8.08,3.18,18.91,9.95,38.4,25.81,43.52,47.32,1.05,4.4,3.19-1.3,2.66-3.53h0Z"/><path class="cls-1" d="m110.87,95.68c7.39-7.37,8.79-19.4,8.56-29.29-.09-4.12-3.17-4.2-3.08,0,.18,8.14-.99,17.22-7.04,23.25-1.4,1.39-.52,8.12,1.55,6.04h0Z"/><path class="cls-1" d="m66.36,95.01c5.67,5.67,12.49,9.07,20.5,9.79,2.03.18,2.27-6.8,0-7-7.28-.65-13.78-3.67-18.95-8.84-2.06-2.06-2.98,4.62-1.55,6.04h0Z"/><path class="cls-1" d="m19.63,99.34c7.38,4.91,16.32,6.78,24.99,4.62,7.69-1.91,13-6.74,18.43-12.16,1.4-1.4.52-8.12-1.55-6.04-5.33,5.33-10.61,9.96-18.26,11.52s-16.02-.19-22.78-4.69c-1.75-1.17-2.66,5.53-.82,6.75h0Z"/><path class="cls-1" d="m19.19,31.69c-7.7,9.01-11.23,21.21-12.02,32.87-.7,10.33.5,22.49,7.64,30.6,1.88,2.13,2.89-4.53,1.55-6.04-11.9-13.5-6.3-38.88,4.38-51.38,1.29-1.51.3-8.21-1.55-6.04h0Z"/><path class="cls-1" d="m66.97,49.21c-2.47,3.34-4.57,7.02-6.3,10.79-.64,1.41-.7,3.55,0,4.95.61,1.21,1.58,1.31,2.18,0,1.56-3.4,3.45-6.68,5.68-9.7.93-1.26.96-3.33.55-4.79-.24-.88-1.15-2.55-2.11-1.26h0Z"/><path class="cls-1" d="m57.93,70.73c-.19,6.69,1.55,13.52,4.07,19.69.56,1.38,1.55,1.08,2.18,0,.78-1.33.56-3.59,0-4.95-1.88-4.61-3.31-9.74-3.17-14.74.03-.9-.21-3.5-1.54-3.5s-1.52,2.68-1.54,3.5h0Z"/></g></g></svg>